<svg width="122" height="122" viewBox="0 0 122 122" fill="none" xmlns="http://www.w3.org/2000/svg">
<rect x="0.598145" y="0.754395" width="120.491" height="120.491" rx="60.2456" fill="#FF0000"/>
<rect x="12.2517" y="12.4082" width="97.1841" height="97.1841" rx="48.592" fill="white"/>
<rect x="12.2517" y="12.4082" width="97.1841" height="97.1841" rx="48.592" stroke="black" stroke-width="2"/>
<path fill-rule="evenodd" clip-rule="evenodd" d="M43.2034 89.0196L44.2064 90.7919C44.207 90.7928 44.2075 90.7937 44.208 90.7947C45.0098 92.2208 44.5014 94.0404 43.0836 94.8411L39.6461 96.7894C39.645 96.7901 39.6438 96.7908 39.6426 96.7914C38.2165 97.593 36.3969 97.0849 35.5959 95.6662L25.4873 77.8048C24.6783 76.3776 25.1868 74.5564 26.6063 73.7546L30.0478 71.8062L30.0489 71.8056C31.4678 71.0043 33.288 71.5081 34.096 72.927L34.0975 72.9296L34.9173 74.3784L43.9641 69.1406C46.6574 67.5831 49.4084 66.5633 52.3665 67.5238C55.262 68.4627 59.9895 70.4862 64.8139 71.358C64.8654 71.3673 64.9162 71.38 64.9659 71.3962C67.3732 72.1757 68.838 74.6087 68.1806 77.0532C68.0679 77.4733 67.9141 77.8602 67.722 78.2104C68.2925 78.0602 68.8497 77.8294 69.3967 77.5107L81.6536 70.3721C86.0555 67.8078 88.9887 68.0757 90.6499 69.1902C92.0722 70.1444 92.7301 71.7741 92.6876 73.3734C92.6447 74.9887 91.8769 76.5326 90.6102 77.3127L68.3692 91.0062C66.042 92.4425 63.4929 92.7794 60.8521 92.0749L60.8509 92.0745L45.1844 87.8758L43.2034 89.0196ZM36.0669 76.4095L42.0539 86.9885L44.436 85.6131C44.5687 85.5364 44.7152 85.4867 44.8671 85.4667C45.0191 85.4467 45.1734 85.4568 45.3215 85.4965L61.454 89.8201C63.4523 90.353 65.3826 90.1071 67.1436 89.0202L67.1446 89.0196L89.3865 75.3255C89.9753 74.9629 90.2835 74.2349 90.3451 73.4885C90.4399 72.339 89.8992 71.0708 88.4775 70.7729C87.1712 70.4993 85.3316 70.9305 82.8284 72.3888L70.5717 79.5271C68.6169 80.6662 66.568 80.9809 64.3351 80.6254L64.3311 80.6248L62.8114 80.3776L62.81 80.3773C62.7942 80.3747 62.7785 80.3718 62.7628 80.3686L62.7612 80.3683C59.996 79.8007 57.4316 78.9652 54.586 78.2005C53.964 78.0333 53.5947 77.3927 53.7619 76.7708C53.929 76.1489 54.5697 75.7795 55.1916 75.9467C57.974 76.6945 60.4819 77.5144 63.1832 78.0724C64.5826 78.2284 65.605 77.6459 65.9268 76.4477L65.927 76.4471C66.2534 75.2334 65.4939 74.0553 64.3142 73.6392C59.4027 72.7382 54.5947 70.6996 51.6463 69.7436L51.6458 69.7435C49.3415 68.9952 47.2306 69.9474 45.1326 71.1608L36.0669 76.4095ZM32.0677 74.0812L32.0668 74.0797C31.8921 73.7756 31.5016 73.6655 31.1966 73.8376L27.7561 75.7854L27.7551 75.786C27.4508 75.9578 27.3443 76.3484 27.5176 76.654L27.5179 76.6547L37.6268 94.5169L37.6274 94.5177C37.7997 94.8227 38.1913 94.9294 38.4979 94.7577L41.9329 92.8108L41.9343 92.8099C42.2395 92.6376 42.3461 92.2458 42.1741 91.9391L32.0677 74.0812ZM30.7334 75.9853C31.5136 75.8692 32.2381 76.4079 32.3542 77.1881C32.4656 77.9683 31.9269 78.6973 31.1467 78.8087C30.3665 78.9248 29.6421 78.3815 29.526 77.6013C29.4145 76.8211 29.9532 76.0968 30.7334 75.9853ZM50.5607 37.5417C50.5607 37.3369 50.6146 37.1357 50.717 36.9583C50.8194 36.7809 50.9668 36.6336 51.1442 36.5312L57.2679 32.9956L62.27 30.1079L68.3937 26.5723C68.5711 26.4699 68.7723 26.4159 68.9772 26.4159C69.182 26.4159 69.3832 26.4699 69.5606 26.5723L86.8102 36.5312C86.9876 36.6336 87.1349 36.7809 87.2373 36.9583C87.3397 37.1357 87.3936 37.3369 87.3936 37.5417V57.4597C87.3936 57.6645 87.3397 57.8657 87.2373 58.0431C87.1349 58.2205 86.9876 58.3678 86.8102 58.4702L69.5606 68.4291C69.3832 68.5315 69.182 68.5855 68.9772 68.5855C68.7723 68.5855 68.5711 68.5315 68.3937 68.4291L51.1442 58.4702C50.9668 58.3678 50.8194 58.2205 50.717 58.0431C50.6146 57.8657 50.5607 57.6645 50.5607 57.4597V37.5417ZM57.8513 35.3536L54.0613 37.5417L68.9772 46.1532L72.7672 43.9651L57.8513 35.3536ZM62.8533 32.4657L60.1851 34.0061L75.1009 42.6178L77.7691 41.0774L62.8533 32.4657ZM83.893 37.5417L68.9772 28.9302L65.187 31.1184L80.1028 39.7299L83.893 37.5417ZM70.144 65.3974L85.0599 56.7859V39.5628L81.2699 41.7509V48.9219C81.2699 49.1268 81.2159 49.328 81.1135 49.5054C81.0111 49.6827 80.8638 49.83 80.6864 49.9325L75.6842 52.8202C75.5068 52.9226 75.3056 52.9766 75.1007 52.9766C74.8959 52.9767 74.6946 52.9227 74.5172 52.8203C74.3398 52.7178 74.1925 52.5705 74.0902 52.3931C73.9878 52.2156 73.9339 52.0144 73.934 51.8095V45.9862L70.144 48.1744V65.3974ZM52.8945 39.5628V56.7859L67.8103 65.3974V48.1744L52.8945 39.5628ZM78.9361 43.0984L76.2678 44.6388V49.7886L78.9361 48.2482V43.0984ZM84.9363 30.5074C84.8561 30.8062 84.6605 31.061 84.3925 31.2157C84.1246 31.3705 83.8061 31.4125 83.5072 31.3325C83.2083 31.2523 82.9536 31.0567 82.7989 30.7887C82.6441 30.5208 82.6021 30.2023 82.6821 29.9034L83.8106 25.6913C83.8908 25.3925 84.0864 25.1377 84.3544 24.983C84.6224 24.8283 84.9408 24.7864 85.2397 24.8663C85.5386 24.9465 85.7934 25.1421 85.9481 25.4101C86.1028 25.678 86.1448 25.9965 86.0648 26.2954L84.9363 30.5074ZM90.8987 44.1971C90.6 44.1166 90.3454 43.9207 90.1909 43.6526C90.0365 43.3845 89.9948 43.066 90.0751 42.7671C90.2424 42.1453 90.8831 41.7762 91.5049 41.9435L95.72 43.0772C96.3419 43.2445 96.7111 43.8853 96.5438 44.5072C96.3765 45.1292 95.7357 45.4982 95.1138 45.3309L90.8987 44.1971ZM90.7507 36.1221C90.4826 36.2767 90.1642 36.3185 89.8653 36.2384C89.5664 36.1583 89.3116 35.9628 89.1568 35.6949C89.0021 35.4268 88.9603 35.1084 89.0404 34.8095C89.1204 34.5106 89.3159 34.2557 89.5838 34.1009L93.3673 31.9167C93.6353 31.7621 93.9538 31.7202 94.2526 31.8003C94.5515 31.8804 94.8064 32.0759 94.9612 32.3438C95.1157 32.6118 95.1576 32.9302 95.0775 33.2291C94.9974 33.528 94.802 33.7828 94.5341 33.9377L90.7507 36.1221ZM55.2723 29.9034C55.3522 30.2023 55.3102 30.5208 55.1555 30.7887C55.0008 31.0567 54.746 31.2523 54.4471 31.3325C54.1482 31.4125 53.8298 31.3705 53.5618 31.2157C53.2938 31.061 53.0982 30.8062 53.018 30.5074L51.8894 26.2954C51.8094 25.9965 51.8514 25.678 52.0061 25.4101C52.1608 25.1421 52.4156 24.9465 52.7145 24.8663C53.0134 24.7864 53.3318 24.8283 53.5998 24.983C53.8677 25.1377 54.0633 25.3925 54.1436 25.6913L55.2723 29.9034ZM46.4492 41.9435C46.7481 41.8633 47.0665 41.905 47.3346 42.0594C47.6027 42.2138 47.7986 42.4684 47.8791 42.7671C47.9594 43.066 47.9177 43.3845 47.7632 43.6526C47.6088 43.9207 47.3542 44.1166 47.0554 44.1971L42.8404 45.3309C42.2186 45.4982 41.5779 45.1292 41.4105 44.5072C41.2432 43.8853 41.6123 43.2445 42.2342 43.0772L46.4492 41.9435ZM48.3704 34.1009C48.6383 34.2557 48.8337 34.5106 48.9138 34.8095C48.9939 35.1084 48.952 35.4268 48.7974 35.6949C48.4755 36.2526 47.7612 36.444 47.2035 36.1221L43.4202 33.9377C43.1523 33.7829 42.9568 33.528 42.8767 33.2291C42.7966 32.9302 42.8385 32.6118 42.9931 32.3438C43.1479 32.0759 43.4028 31.8804 43.7017 31.8003C44.0006 31.7202 44.319 31.7621 44.5871 31.9167L48.3704 34.1009Z" fill="#121212"/>
</svg>
