<svg width="121" height="122" viewBox="0 0 121 122" fill="none" xmlns="http://www.w3.org/2000/svg">
<rect x="0.265137" y="0.754395" width="120.491" height="120.491" rx="60.2456" fill="#FF0000"/>
<rect x="11.9189" y="12.4082" width="97.1841" height="97.1841" rx="48.592" fill="white"/>
<rect x="11.9189" y="12.4082" width="97.1841" height="97.1841" rx="48.592" stroke="black" stroke-width="2"/>
<g clip-path="url(#clip0_4029_1567)">
<path d="M87.1845 81.5941C85.9239 81.595 84.6914 81.2221 83.6428 80.5224C82.5942 79.8227 81.7766 78.8277 81.2936 77.6633C80.8105 76.499 80.6836 75.2175 80.929 73.981C81.1744 72.7445 81.781 71.6085 82.672 70.7168C83.5631 69.8251 84.6986 69.2177 85.9349 68.9714C87.1712 68.7252 88.4528 68.8511 89.6175 69.3333C90.7823 69.8155 91.7778 70.6323 92.4783 71.6804C93.1787 72.7285 93.5526 73.9608 93.5526 75.2214C93.5518 76.9105 92.8808 78.5302 91.6868 79.725C90.4929 80.9198 88.8736 81.5921 87.1845 81.5941ZM87.1845 71.1733C86.3837 71.1724 85.6006 71.409 84.9343 71.8533C84.268 72.2975 83.7484 72.9294 83.4413 73.669C83.1342 74.4086 83.0534 75.2227 83.209 76.0083C83.3647 76.7938 83.7499 77.5155 84.3158 78.0821C84.8818 78.6487 85.6031 79.0347 86.3884 79.1913C87.1738 79.3479 87.988 79.268 88.7279 78.9617C89.4679 78.6555 90.1004 78.1366 90.5454 77.4708C90.9904 76.805 91.2279 76.0222 91.2279 75.2214C91.2275 74.1487 90.8015 73.12 90.0435 72.3611C89.2854 71.6021 88.2572 71.175 87.1845 71.1733ZM53.6021 81.5941C52.3414 81.5953 51.1087 81.2226 50.0599 80.5231C49.0111 79.8236 48.1933 78.8288 47.71 77.6644C47.2267 76.5001 47.0997 75.2185 47.3448 73.9819C47.59 72.7453 48.1965 71.6092 49.0875 70.7174C49.9785 69.8255 51.114 69.2179 52.3503 68.9715C53.5867 68.7251 54.8684 68.851 56.0332 69.3331C57.198 69.8153 58.1937 70.6321 58.8942 71.6802C59.5947 72.7284 59.9686 73.9607 59.9686 75.2214C59.9674 76.9101 59.2964 78.5294 58.1029 79.724C56.9094 80.9187 55.2908 81.5912 53.6021 81.5941ZM53.6021 71.1733C52.8012 71.1721 52.0179 71.4085 51.3514 71.8525C50.6849 72.2966 50.1651 72.9284 49.8578 73.668C49.5504 74.4075 49.4694 75.2217 49.6249 76.0073C49.7804 76.793 50.1654 77.5148 50.7313 78.0816C51.2972 78.6483 52.0185 79.0345 52.8039 79.1912C53.5893 79.3479 54.4035 79.2681 55.1436 78.9619C55.8836 78.6557 56.5162 78.1368 56.9613 77.471C57.4064 76.8052 57.6439 76.0223 57.6439 75.2214C57.6431 74.1491 57.2172 73.1209 56.4596 72.3621C55.7019 71.6033 54.6744 71.1758 53.6021 71.1733Z" fill="black"/>
<path d="M95.5688 76.3833H92.3902C92.0819 76.3833 91.7863 76.2609 91.5683 76.0429C91.3503 75.8249 91.2278 75.5293 91.2278 75.221C91.2278 74.9127 91.3503 74.6171 91.5683 74.3991C91.7863 74.1811 92.0819 74.0586 92.3902 74.0586H95.2403V67.8951C95.2395 67.0618 95.0261 66.2425 94.6203 65.5146L88.3282 54.2337C88.2744 54.1374 88.196 54.0572 88.1009 54.0014C88.0058 53.9455 87.8976 53.9161 87.7873 53.916H79.2123V74.0633H81.9802C82.2885 74.0633 82.5842 74.1857 82.8021 74.4037C83.0201 74.6217 83.1426 74.9174 83.1426 75.2256C83.1426 75.5339 83.0201 75.8296 82.8021 76.0475C82.5842 76.2655 82.2885 76.388 81.9802 76.388H78.05C77.7417 76.388 77.446 76.2655 77.2281 76.0475C77.0101 75.8296 76.8876 75.5339 76.8876 75.2256V52.7537C76.8876 52.4454 77.0101 52.1497 77.2281 51.9318C77.446 51.7138 77.7417 51.5913 78.05 51.5913H87.7873C88.3117 51.5911 88.8266 51.7308 89.2789 51.9962C89.7312 52.2616 90.1044 52.6429 90.36 53.1008L96.6506 64.3833C97.2486 65.4572 97.5628 66.6659 97.5634 67.8951V74.3887C97.5626 74.9175 97.3522 75.4243 96.9783 75.7982C96.6044 76.1721 96.0976 76.3825 95.5688 76.3833ZM48.3963 76.3833H37.2517C36.9434 76.3833 36.6478 76.2609 36.4298 76.0429C36.2118 75.8249 36.0894 75.5293 36.0894 75.221V66.2818C36.0894 65.9735 36.2118 65.6779 36.4298 65.4599C36.6478 65.2419 36.9434 65.1194 37.2517 65.1194C37.56 65.1194 37.8556 65.2419 38.0736 65.4599C38.2916 65.6779 38.414 65.9735 38.414 66.2818V74.0586H48.3963C48.7045 74.0586 49.0002 74.1811 49.2182 74.3991C49.4361 74.6171 49.5586 74.9127 49.5586 75.221C49.5586 75.5293 49.4361 75.8249 49.2182 76.0429C49.0002 76.2609 48.7045 76.3833 48.3963 76.3833ZM37.2517 62.1578C36.9434 62.1578 36.6478 62.0353 36.4298 61.8173C36.2118 61.5994 36.0894 61.3037 36.0894 60.9954V53.1907C36.0894 52.8824 36.2118 52.5868 36.4298 52.3688C36.6478 52.1508 36.9434 52.0283 37.2517 52.0283C37.56 52.0283 37.8556 52.1508 38.0736 52.3688C38.2916 52.5868 38.414 52.8824 38.414 53.1907V61.0001C38.4128 61.3076 38.2898 61.602 38.072 61.819C37.8541 62.036 37.5592 62.1578 37.2517 62.1578Z" fill="black"/>
<path d="M78.0496 76.3835H58.8058C58.4975 76.3835 58.2019 76.2611 57.9839 76.0431C57.7659 75.8251 57.6435 75.5294 57.6435 75.2212C57.6435 74.9129 57.7659 74.6173 57.9839 74.3993C58.2019 74.1813 58.4975 74.0588 58.8058 74.0588H76.8872V43.6504H38.4137V48.4377C38.4137 48.746 38.2912 49.0416 38.0732 49.2596C37.8552 49.4776 37.5596 49.6 37.2513 49.6C36.943 49.6 36.6474 49.4776 36.4294 49.2596C36.2114 49.0416 36.089 48.746 36.089 48.4377V43.4365C36.0898 42.8767 36.3127 42.34 36.7087 41.9443C37.1047 41.5486 37.6415 41.3261 38.2013 41.3257H77.1011C77.6607 41.3265 78.1971 41.5492 78.5928 41.9448C78.9885 42.3405 79.2111 42.8769 79.2119 43.4365V75.2212C79.2119 75.5294 79.0895 75.8251 78.8715 76.0431C78.6535 76.2611 78.3579 76.3835 78.0496 76.3835ZM41.8465 67.4443H27.094C26.7857 67.4443 26.4901 67.3219 26.2721 67.1039C26.0541 66.8859 25.9316 66.5903 25.9316 66.282C25.9316 65.9737 26.0541 65.6781 26.2721 65.4601C26.4901 65.2421 26.7857 65.1196 27.094 65.1196H41.8465C42.1547 65.1196 42.4504 65.2421 42.6684 65.4601C42.8863 65.6781 43.0088 65.9737 43.0088 66.282C43.0088 66.5903 42.8863 66.8859 42.6684 67.1039C42.4504 67.3219 42.1547 67.4443 41.8465 67.4443Z" fill="black"/>
<path d="M53.6019 62.158H33.016C32.7077 62.158 32.4121 62.0356 32.1941 61.8176C31.9761 61.5996 31.8536 61.304 31.8536 60.9957C31.8536 60.6874 31.9761 60.3918 32.1941 60.1738C32.4121 59.9558 32.7077 59.8334 33.016 59.8334H53.6019C53.9101 59.8334 54.2058 59.9558 54.4238 60.1738C54.6417 60.3918 54.7642 60.6874 54.7642 60.9957C54.7642 61.304 54.6417 61.5996 54.4238 61.8176C54.2058 62.0356 53.9101 62.158 53.6019 62.158ZM32.3759 56.0209H24.3371C24.0289 56.0209 23.7332 55.8984 23.5152 55.6804C23.2973 55.4624 23.1748 55.1668 23.1748 54.8585C23.1748 54.5502 23.2973 54.2546 23.5152 54.0366C23.7332 53.8186 24.0289 53.6962 24.3371 53.6962H32.3759C32.6842 53.6962 32.9798 53.8186 33.1978 54.0366C33.4158 54.2546 33.5383 54.5502 33.5383 54.8585C33.5383 55.1668 33.4158 55.4624 33.1978 55.6804C32.9798 55.8984 32.6842 56.0209 32.3759 56.0209ZM45.2655 49.6001H31.0756C30.7674 49.6001 30.4717 49.4776 30.2537 49.2596C30.0358 49.0417 29.9133 48.746 29.9133 48.4377C29.9133 48.1295 30.0358 47.8338 30.2537 47.6158C30.4717 47.3979 30.7674 47.2754 31.0756 47.2754H45.2655C45.5738 47.2754 45.8695 47.3979 46.0874 47.6158C46.3054 47.8338 46.4279 48.1295 46.4279 48.4377C46.4279 48.746 46.3054 49.0417 46.0874 49.2596C45.8695 49.4776 45.5738 49.6001 45.2655 49.6001Z" fill="black"/>
</g>
<defs>
<clipPath id="clip0_4029_1567">
<rect width="74.39" height="74.39" fill="white" transform="translate(23.3159 23.8052)"/>
</clipPath>
</defs>
</svg>
