<svg width="121" height="121" viewBox="0 0 121 121" fill="none" xmlns="http://www.w3.org/2000/svg">
<rect x="0.0878906" y="-0.00341797" width="120.491" height="120.491" rx="60.2456" fill="#FF0000"/>
<rect x="11.7412" y="11.6504" width="97.1841" height="97.1841" rx="48.592" fill="white"/>
<rect x="11.7412" y="11.6504" width="97.1841" height="97.1841" rx="48.592" stroke="black" stroke-width="2"/>
<g clip-path="url(#clip0_4029_1606)">
<path d="M48.8783 78.7689L37.782 78.7571C36.0965 78.7554 34.7316 77.3876 34.7334 75.702L34.7684 42.6652L26.3452 42.6562M86.7584 55.4592L78.5163 76.0043C78.1853 76.8294 77.6147 77.5363 76.8781 78.0339C76.1414 78.5315 75.2726 78.797 74.3836 78.796L54.1692 78.7745" stroke="black" stroke-width="2.17391" stroke-miterlimit="10" stroke-linecap="round" stroke-linejoin="round"/>
<path d="M40.6676 78.7606L35.3041 85.3553C33.9357 87.0378 35.1314 89.5551 37.3002 89.5574L78.4429 89.6011M67.6036 50.5617L88.7034 50.5841C89.5031 50.5849 90.1507 51.2339 90.1498 52.0336L90.1477 54.0152C90.1469 54.8149 89.4979 55.4625 88.6982 55.4617L34.755 55.4045L34.7602 50.5268L62.4558 50.5562M41.5695 50.5341L41.5852 35.6955C41.5857 35.2141 41.7195 34.7541 41.9582 34.3616L58.2529 42.6905M58.2529 42.6905L58.2446 50.5518M58.2529 42.6905L73.2144 35.0827M74.9296 40.5264L74.919 50.5694" stroke="black" stroke-width="2.17391" stroke-miterlimit="10" stroke-linecap="round" stroke-linejoin="round"/>
<path d="M73.2144 35.0818L58.2525 42.6897L41.9584 34.3612C42.1846 33.9905 42.5038 33.6801 42.8937 33.4718L57.1552 25.8298C57.1591 25.8282 57.1623 25.8257 57.1662 25.8241C57.508 25.6421 57.8895 25.5476 58.2767 25.549C58.6639 25.5504 59.0447 25.6477 59.3852 25.8321L73.3016 33.3279" stroke="black" stroke-width="2.17391" stroke-miterlimit="10" stroke-linecap="round" stroke-linejoin="round"/>
<path d="M93.2976 39.3786C93.9805 37.9812 94.3644 36.4111 94.3662 34.7512C94.3724 28.9089 89.6413 24.1678 83.799 24.1616C77.9568 24.1554 73.2157 28.8865 73.2095 34.7287C73.2033 40.571 77.9343 45.3121 83.7766 45.3183C86.0479 45.3207 88.1528 44.6071 89.8778 43.3906" stroke="black" stroke-width="2.17391" stroke-miterlimit="10" stroke-linecap="round" stroke-linejoin="round"/>
<path d="M85.9617 30.712C85.5717 30.3192 84.6463 29.3124 82.9087 29.8339C81.3132 30.3126 80.9147 32.4946 81.9978 33.3458C82.6197 33.8346 83.5556 34.2369 84.8173 34.6844C87.6409 35.6858 86.5925 39.6683 83.7191 39.6843C82.5978 39.6905 82.0737 39.6188 81.0893 38.9734M83.719 39.6843L83.7174 41.1383M83.731 28.3426L83.7296 29.6897" stroke="black" stroke-width="2.17391" stroke-miterlimit="10" stroke-linecap="round" stroke-linejoin="round"/>
<path d="M44.9025 96.3308C46.7708 96.3328 48.287 94.8199 48.289 92.9516C48.291 91.0833 46.778 89.5671 44.9097 89.5651C43.0414 89.5631 41.5252 91.0761 41.5233 92.9444C41.5213 94.8127 43.0342 96.3289 44.9025 96.3308Z" stroke="black" stroke-width="2.17391" stroke-miterlimit="10" stroke-linecap="round" stroke-linejoin="round"/>
<path d="M72.3415 96.3601C74.2098 96.3621 75.726 94.8492 75.728 92.9809C75.7299 91.1126 74.217 89.5964 72.3487 89.5944C70.4804 89.5924 68.9642 91.1054 68.9622 92.9737C68.9602 94.842 70.4732 96.3582 72.3415 96.3601Z" stroke="black" stroke-width="2.17391" stroke-miterlimit="10" stroke-linecap="round" stroke-linejoin="round"/>
<path d="M46.0683 55.4163L46.0435 78.7662M58.2393 55.4292L58.2145 78.7791M83.845 62.7219L34.7472 62.6698M80.0691 71.5367L34.7378 71.4887M70.4105 55.4421L70.3857 78.792" stroke="black" stroke-width="2.17391" stroke-miterlimit="10" stroke-linecap="round" stroke-linejoin="round"/>
</g>
<defs>
<clipPath id="clip0_4029_1606">
<rect width="74.39" height="74.39" fill="white" transform="translate(23.1777 23.0078) rotate(0.0607808)"/>
</clipPath>
</defs>
</svg>
