<svg width="122" height="122" viewBox="0 0 122 122" fill="none" xmlns="http://www.w3.org/2000/svg">
<rect x="0.931396" y="0.754395" width="120.491" height="120.491" rx="60.2456" fill="#FF0000"/>
<rect x="12.585" y="12.4082" width="97.1841" height="97.1841" rx="48.592" fill="white"/>
<rect x="12.585" y="12.4082" width="97.1841" height="97.1841" rx="48.592" stroke="black" stroke-width="2"/>
<path d="M61.1768 39.3032C49.2124 39.3032 39.4797 49.0359 39.4797 61.0003C39.4797 72.9647 49.2124 82.6974 61.1768 82.6974C73.1412 82.6974 82.8739 72.9647 82.8739 61.0003C82.8739 49.0359 73.1412 39.3032 61.1768 39.3032ZM61.1768 79.5978C50.9218 79.5978 42.5793 71.2553 42.5793 61.0003C42.5793 50.7453 50.9218 42.4028 61.1768 42.4028C71.4318 42.4028 79.7743 50.7453 79.7743 61.0003C79.7743 71.2553 71.4318 79.5978 61.1768 79.5978Z" fill="black"/>
<path d="M69.3798 53.7053L58.0772 65.008L52.9722 59.9045C52.6816 59.6139 52.2874 59.4506 51.8765 59.4506C51.4655 59.4506 51.0714 59.6139 50.7808 59.9045C50.4902 60.1951 50.3269 60.5892 50.3269 61.0002C50.3269 61.4112 50.4902 61.8053 50.7808 62.0959L56.9815 68.2951C57.2721 68.5856 57.6662 68.7488 58.0772 68.7488C58.4881 68.7488 58.8823 68.5856 59.1729 68.2951L71.5712 55.8967C71.8618 55.6061 72.0251 55.212 72.0251 54.801C72.0251 54.3901 71.8618 53.9959 71.5712 53.7053C71.2806 53.4147 70.8865 53.2515 70.4755 53.2515C70.0645 53.2515 69.6704 53.4147 69.3798 53.7053Z" fill="black"/>
<path d="M91.9712 55.9587C91.3327 55.486 91.1343 54.5515 91.5574 53.8789C93.0715 51.4705 95.2707 46.412 87.6984 44.5569C86.9266 44.3678 86.3547 43.5697 86.519 42.7948C87.2459 39.3945 86.2277 34.4569 79.3838 35.6595C78.6042 35.7959 77.7751 35.2597 77.6217 34.4801C77.1087 31.8734 74.8987 26.5932 68.3012 30.6196C67.6224 31.0334 66.5406 30.8087 66.2214 30.2043C65.197 28.2686 60.7103 23.8052 56.1322 30.2043C55.6704 30.8505 54.6088 31.0163 54.0524 30.618C51.0489 28.4669 46.1965 27.9292 44.7304 34.477C44.5615 35.2287 43.7618 35.8052 42.9668 35.6549C40.3414 35.1558 34.5793 35.3201 35.8362 42.7901C35.9679 43.5728 35.4425 44.436 34.6583 44.5538C31.6006 45.011 26.8861 47.4674 30.7962 53.8742C31.21 54.5515 31.0907 55.596 30.3825 55.954C27.6688 57.3256 24.5614 62.2043 30.3825 66.0478C31.0442 66.4849 31.21 67.4256 30.7962 68.1029C26.8861 74.5097 31.6006 76.9646 34.6583 77.4233C35.4441 77.5411 35.9679 78.4043 35.8362 79.187C34.5793 86.657 40.3414 86.8212 42.9699 86.3207C43.7649 86.1688 44.5646 86.7469 44.7335 87.4985C46.1996 94.0479 51.052 93.5086 54.0555 91.3575C54.6119 90.9592 55.6735 91.125 56.1353 91.7713C60.7134 98.1719 65.2001 93.7085 66.2245 91.7713C66.5437 91.1684 67.6255 90.9421 68.3043 91.3559C74.9018 95.3823 77.1118 90.1022 77.6248 87.4954C77.7782 86.7159 78.6073 86.1796 79.3869 86.316C86.2308 87.5186 87.2474 82.581 86.5221 79.1808C86.3563 78.4059 86.9297 77.6077 87.7015 77.4187C95.2753 75.5636 93.0762 70.505 91.5605 68.0967C91.1374 67.424 91.3203 66.4694 91.9712 66.0199C93.9952 64.6205 98.3718 60.6949 91.9712 55.9587ZM89.7581 71.4008C90.285 72.2486 89.9596 73.414 88.76 73.8092C86.5624 74.5345 82.5128 75.1312 83.593 81.5457C83.7991 82.7654 83.1467 83.4954 81.7488 83.3885C79.6224 83.2257 75.2443 82.3656 74.0153 88.557C73.772 89.7798 72.574 90.0448 71.6069 89.5566C67.4349 87.4505 65.7658 87.1808 62.4833 91.3714C61.8556 92.1727 60.5476 92.1386 59.875 91.3714C58.1113 89.3614 56.1136 86.2711 50.7498 89.5582C49.8168 90.13 48.7537 89.6884 48.3414 88.5601C47.2705 85.6217 46.9544 82.4896 40.6064 83.3931C39.627 83.5326 38.5886 82.8693 38.7637 81.5504C39.0969 79.0273 39.4797 74.9762 33.5936 73.8138C32.6854 73.6341 31.9756 72.4221 32.5956 71.4055C34.9466 67.5604 34.6211 65.1552 30.7467 62.2648C30.3096 61.9393 29.5983 60.5399 30.7808 59.6937C34.5545 56.9939 34.9466 54.4166 32.5956 50.5701C31.9741 49.5534 32.6854 48.3399 33.5936 48.1617C39.4797 46.9993 39.0969 42.9482 38.7637 40.4251C38.5886 39.1063 39.6285 38.4429 40.6064 38.5824C46.9544 39.4844 47.2705 36.3538 48.3414 33.4154C48.7521 32.2856 49.8168 31.8455 50.7498 32.4174C56.1152 35.7045 58.1129 32.6142 59.875 30.6041C60.5476 29.8369 61.8541 29.8029 62.4833 30.6041C65.7658 34.7947 67.4349 34.5251 71.6069 32.4189C72.574 31.9307 73.772 32.1957 74.0153 33.4185C75.2443 39.6099 79.6224 38.7498 81.7488 38.5871C83.1482 38.4801 83.7991 39.2101 83.593 40.4298C82.5128 46.8459 86.5624 47.441 88.76 48.1663C89.9596 48.5615 90.285 49.7285 89.7581 50.5747C86.3113 56.1106 89.9534 58.3113 91.5729 59.6999C92.2052 60.2423 92.5694 61.524 91.7186 62.1873C89.7829 63.5263 86.3113 65.865 89.7581 71.4008Z" fill="black"/>
</svg>
