<svg width="121" height="121" viewBox="0 0 121 121" fill="none" xmlns="http://www.w3.org/2000/svg">
<rect x="0.421143" y="-0.00341797" width="120.491" height="120.491" rx="60.2456" fill="#FF0000"/>
<rect x="12.0747" y="11.6504" width="97.1841" height="97.1841" rx="48.592" fill="white"/>
<rect x="12.0747" y="11.6504" width="97.1841" height="97.1841" rx="48.592" stroke="black" stroke-width="2"/>
<path d="M40.7423 81.0864C42.4681 80.0184 43.62 78.1085 43.62 75.9333C43.62 72.5941 40.9034 69.8761 37.5628 69.8761C34.2221 69.8761 31.5055 72.5927 31.5055 75.9333C31.5055 78.1085 32.6574 80.0184 34.3832 81.0864C30.7001 81.8958 27.8319 84.9644 27.3947 88.8519C27.2566 90.0782 27.618 91.2139 28.441 92.1343C29.264 93.0547 30.3509 93.5406 31.5854 93.5406H43.5374C44.7719 93.5406 45.8588 93.0547 46.6818 92.1343C47.5048 91.2139 47.8662 90.0796 47.7281 88.8519C47.295 84.9644 44.4254 81.8958 40.7423 81.0864ZM33.1311 75.9333C33.1311 73.4888 35.1195 71.5004 37.5641 71.5004C40.0087 71.5004 41.9971 73.4888 41.9971 75.9333C41.9971 78.3779 40.0087 80.3663 37.5641 80.3663C35.1195 80.3663 33.1311 78.3779 33.1311 75.9333ZM45.4744 91.0514C44.9614 91.6253 44.3103 91.9164 43.5401 91.9164H31.5881C30.8179 91.9164 30.1682 91.6253 29.6538 91.0514C29.1408 90.4775 28.9242 89.798 29.0109 89.0332C29.4291 85.3082 32.5748 82.4982 36.3256 82.4982H38.804C42.5547 82.4982 45.6991 85.3068 46.1187 89.0332C46.204 89.798 45.9874 90.4775 45.4744 91.0514ZM63.8438 81.0864C65.5696 80.0184 66.7215 78.1085 66.7215 75.9333C66.7215 72.5941 64.0049 69.8761 60.6642 69.8761C57.3236 69.8761 54.607 72.5927 54.607 75.9333C54.607 78.1085 55.7589 80.0184 57.4847 81.0864C53.8016 81.8958 50.9334 84.9644 50.4962 88.8519C50.3581 90.0782 50.7195 91.2139 51.5425 92.1343C52.3655 93.0547 53.4551 93.5406 54.6895 93.5406H66.6416C67.8761 93.5406 68.963 93.0547 69.786 92.1343C70.609 91.2139 70.9704 90.0782 70.8323 88.8519C70.3964 84.9644 67.5269 81.8958 63.8438 81.0864ZM56.2326 75.9333C56.2326 73.4888 58.221 71.5004 60.6656 71.5004C63.1101 71.5004 65.0985 73.4888 65.0985 75.9333C65.0985 78.3779 63.1101 80.3663 60.6656 80.3663C58.221 80.3663 56.2326 78.3779 56.2326 75.9333ZM68.5759 91.0514C68.0629 91.6253 67.4118 91.9164 66.6416 91.9164H54.6895C53.9194 91.9164 53.2696 91.6253 52.7566 91.0514C52.2436 90.4775 52.0271 89.798 52.1137 89.0332C52.5319 85.3082 55.6777 82.4982 59.4284 82.4982H61.9068C65.6576 82.4982 68.8019 85.3068 69.2215 89.0332C69.3055 89.798 69.0889 90.4775 68.5759 91.0514ZM93.9351 88.8519C93.4979 84.9644 90.6297 81.8958 86.9466 81.0864C88.6724 80.0184 89.8243 78.1085 89.8243 75.9333C89.8243 72.5941 87.1077 69.8761 83.7671 69.8761C80.4264 69.8761 77.7098 72.5927 77.7098 75.9333C77.7098 78.1085 78.8617 80.0184 80.5875 81.0864C76.9044 81.8958 74.0362 84.9644 73.599 88.8519C73.4609 90.0782 73.8223 91.2139 74.6453 92.1343C75.4683 93.0547 76.5552 93.5406 77.7897 93.5406H89.7417C90.9762 93.5406 92.0631 93.0547 92.8861 92.1343C93.7104 91.2139 94.0732 90.0782 93.9351 88.8519ZM79.3341 75.9333C79.3341 73.4888 81.3225 71.5004 83.7671 71.5004C86.2116 71.5004 88.2 73.4888 88.2 75.9333C88.2 78.3779 86.2116 80.3663 83.7671 80.3663C81.3225 80.3663 79.3341 78.3779 79.3341 75.9333ZM91.6774 91.0514C91.1644 91.6253 90.5133 91.9164 89.7445 91.9164H77.7924C77.0222 91.9164 76.3725 91.6253 75.8595 91.0514C75.3465 90.4775 75.1299 89.798 75.2165 89.0332C75.6348 85.3082 78.7791 82.4982 82.5312 82.4982H85.0096C88.7604 82.4982 91.9048 85.3068 92.3244 89.0332C92.4069 89.798 92.1904 90.4775 91.6774 91.0514ZM75.2084 57.032C75.8757 56.3647 75.9001 55.2967 75.2653 54.5996L73.5692 52.7385C73.5246 52.6897 73.5178 52.6369 73.5503 52.5787C74.0944 51.6001 74.5262 50.5606 74.8321 49.4858C74.8511 49.4222 74.8917 49.3897 74.958 49.3857L77.4716 49.2692C77.9244 49.249 78.3519 49.0547 78.6649 48.7268C78.9779 48.3989 79.1522 47.9629 79.1514 47.5096V43.3487C79.1514 42.4053 78.4137 41.6324 77.4716 41.5891L74.958 41.4726C74.8917 41.4699 74.8511 41.4375 74.8321 41.3738C74.5248 40.3018 74.0944 39.2609 73.5489 38.2823C73.5164 38.2241 73.5232 38.1726 73.5679 38.1225L75.2639 36.2614C75.5696 35.9267 75.7343 35.4869 75.7238 35.0338C75.7132 34.5806 75.5281 34.149 75.2071 33.829L72.2644 30.8863C71.9444 30.5653 71.5128 30.3802 71.0596 30.3696C70.6064 30.359 70.1667 30.5238 69.832 30.8295L67.9708 32.5255C67.9221 32.5702 67.8693 32.5769 67.8111 32.5445C66.8325 32.0003 65.7916 31.5685 64.7182 31.2626C64.6546 31.2437 64.6221 31.2031 64.618 31.1367L64.5016 28.6231C64.4814 28.1703 64.2871 27.7428 63.9592 27.4298C63.6313 27.1168 63.1952 26.9426 62.742 26.9434H58.5811C58.1278 26.9426 57.6917 27.1168 57.3639 27.4298C57.036 27.7428 56.8417 28.1703 56.8214 28.6231L56.705 31.1367C56.7023 31.2031 56.6698 31.2437 56.6062 31.2626C55.5303 31.571 54.4931 32.0011 53.5146 32.5445C53.4564 32.5769 53.405 32.5702 53.3549 32.5255L51.4938 30.8295C51.1591 30.5238 50.7193 30.359 50.2662 30.3696C49.813 30.3802 49.3814 30.5653 49.0614 30.8863L46.1187 33.829C45.7977 34.149 45.6126 34.5806 45.602 35.0338C45.5914 35.4869 45.7561 35.9267 46.0619 36.2614L47.7579 38.1225C47.8026 38.1713 47.8093 38.2241 47.7768 38.2823C47.2327 39.2609 46.8009 40.3004 46.495 41.3738C46.4774 41.4375 46.4354 41.4699 46.3691 41.4726L43.8555 41.5891C43.4027 41.6093 42.9752 41.8036 42.6622 42.1315C42.3492 42.4594 42.1749 42.8954 42.1757 43.3487V47.5096C42.1757 48.453 42.9134 49.2259 43.8555 49.2692L46.3691 49.3857C46.4354 49.3884 46.476 49.4208 46.495 49.4845C46.8023 50.5578 47.2341 51.5974 47.7782 52.576C47.8107 52.6342 47.8039 52.6857 47.7592 52.7358L46.0632 54.5969C45.7575 54.9316 45.5928 55.3714 45.6034 55.8245C45.6139 56.2777 45.799 56.7093 46.1201 57.0293L49.0627 59.972L49.0641 59.9733V61.9522C49.0641 62.4003 49.4282 62.7644 49.8762 62.7644H71.2709C71.7189 62.7644 72.083 62.4003 72.083 61.9522V60.129C72.1466 60.0803 72.2075 60.0288 72.2644 59.972L75.2084 57.032ZM47.2706 55.8842C47.2192 55.8327 47.2165 55.7488 47.2665 55.6947L48.9626 53.8335C49.481 53.265 49.5744 52.4637 49.2008 51.791C48.7173 50.9209 48.3345 49.9986 48.0597 49.0418C47.8486 48.3028 47.2151 47.802 46.4476 47.7668L43.934 47.6504C43.8609 47.6477 43.8027 47.5868 43.8027 47.5137V43.3528C43.8027 43.2797 43.8596 43.2188 43.934 43.2161L46.4476 43.0996C47.2151 43.0645 47.8486 42.5636 48.0597 41.8246C48.3338 40.8678 48.7162 39.9455 49.1994 39.0755C49.573 38.4027 49.4796 37.6014 48.9626 37.0329L47.2665 35.1718C47.2165 35.1176 47.2192 35.0337 47.2706 34.9822L50.2133 32.0396C50.2647 31.9881 50.3486 31.9854 50.4028 32.0355L52.2639 33.7315C52.8324 34.25 53.6338 34.3434 54.3065 33.9684C55.1762 33.4846 56.0986 33.1022 57.0556 32.8287C57.7947 32.6176 58.2955 31.9841 58.3307 31.2166L58.4471 28.703C58.4498 28.6299 58.5107 28.5717 58.5838 28.5717H62.7447C62.8178 28.5717 62.8787 28.6286 62.8814 28.703L62.9978 31.2166C63.033 31.9841 63.5338 32.6176 64.2729 32.8287C65.2296 33.1028 66.152 33.4852 67.022 33.9684C67.6947 34.342 68.496 34.2486 69.0645 33.7302L70.9257 32.0342C70.9798 31.9841 71.0638 31.9868 71.1152 32.0382L74.0579 34.9809C74.1093 35.0323 74.112 35.1163 74.0619 35.1704L72.3659 37.0316C71.8475 37.6001 71.7554 38.4014 72.129 39.0741C72.6128 39.944 72.9957 40.8664 73.2701 41.8232C73.4812 42.5623 74.1134 43.0631 74.8822 43.0983L77.3958 43.2147C77.4689 43.2174 77.5271 43.2783 77.5271 43.3514V47.5123C77.5271 47.5854 77.4702 47.6463 77.3958 47.649L74.8822 47.7654C74.1147 47.8006 73.4812 48.3014 73.2701 49.0405C72.996 49.9972 72.6136 50.9196 72.1304 51.7896C71.7568 52.4623 71.8502 53.2636 72.3673 53.8321L74.0633 55.6933C74.1134 55.7475 74.1107 55.8314 74.0592 55.8828L71.9923 57.9497C71.6684 55.6759 70.4692 53.6184 68.6503 52.216C70.2638 50.3237 71.1436 47.9495 71.1436 45.4305C71.1436 39.6521 66.4426 34.9498 60.6629 34.9498C54.8831 34.9498 50.1821 39.6507 50.1821 45.4305C50.1821 47.9103 51.0376 50.2546 52.6064 52.1334C50.7715 53.502 49.5418 55.5314 49.1778 57.7914L47.2706 55.8842ZM60.2257 52.8034L59.6463 51.9926H61.5062L60.9295 52.8007C60.8062 52.9736 60.7552 53.1878 60.7874 53.3976L61.3613 57.078L60.5776 58.3747L59.7939 57.0794L60.3692 53.4017C60.4011 53.1912 60.3496 52.9766 60.2257 52.8034ZM62.6675 54.9164L62.4428 53.4748L63.745 51.6529C63.9223 51.4052 63.9453 51.0803 63.8059 50.8096C63.6665 50.5389 63.3876 50.3683 63.0831 50.3683H58.0667C57.9175 50.3684 57.7711 50.4095 57.6436 50.4872C57.5162 50.5649 57.4126 50.6762 57.3442 50.8089C57.2758 50.9415 57.2453 51.0905 57.256 51.2394C57.2667 51.3883 57.3182 51.5313 57.4048 51.6529L58.7097 53.4789L58.4836 54.9191L56.1934 51.1318C56.0989 50.9758 55.9549 50.8561 55.7843 50.7918C55.6137 50.7275 55.4265 50.7223 55.2526 50.7771C54.8272 50.9124 54.4123 51.0789 54.0114 51.2752C52.5861 49.6577 51.8064 47.6057 51.8064 45.4305C51.8064 40.5468 55.7792 36.5741 60.6629 36.5741C65.5466 36.5741 69.5193 40.5468 69.5193 45.4305C69.5193 47.6368 68.7194 49.7119 67.2589 51.3375C66.8257 51.1169 66.3696 50.9287 65.8931 50.7771C65.5358 50.6634 65.1473 50.811 64.9524 51.1318L62.6675 54.9164ZM70.4614 61.1428H67.6798V58.973C67.6798 58.525 67.3157 58.1609 66.8677 58.1609C66.4196 58.1609 66.0555 58.525 66.0555 58.973V61.1428H55.097V58.973C55.097 58.525 54.7329 58.1609 54.2848 58.1609C53.8368 58.1609 53.4727 58.525 53.4727 58.973V61.1428H50.6911V59.2194C50.6911 56.2659 52.4589 53.6575 55.1511 52.5435L59.8805 60.3645C60.028 60.6081 60.2906 60.757 60.5749 60.757C60.8591 60.757 61.1231 60.6081 61.2693 60.3645L65.9987 52.5435C68.6909 53.6575 70.4601 56.2659 70.4601 59.2194V61.1428H70.4614ZM64.2309 41.1505C63.2672 40.1705 62.1071 39.7143 60.579 39.7143C59.0467 39.7143 57.884 40.1705 56.9216 41.1505C55.6086 42.4865 55.277 45.1936 56.1663 47.3147C56.9608 49.2097 58.5689 50.298 60.5776 50.298C62.585 50.298 64.193 49.211 64.9876 47.316C65.8755 45.1936 65.5439 42.4851 64.2309 41.1505ZM63.4878 46.6866C63.1074 47.5922 62.2939 48.6723 60.5762 48.6723C58.8572 48.6723 58.0437 47.5922 57.6634 46.6853C57.0299 45.1747 57.2207 43.1619 58.0789 42.2875C58.734 41.6215 59.4812 41.3373 60.579 41.3373C61.6713 41.3373 62.4171 41.6215 63.0722 42.2875C63.9318 43.1619 64.1213 45.176 63.4878 46.6866ZM76.5918 61.4176L83.4314 67.0837C83.7765 67.3693 83.8253 67.8823 83.5383 68.2274C83.4621 68.3194 83.3665 68.3934 83.2584 68.4441C83.1503 68.4949 83.0324 68.5212 82.913 68.5212C82.7302 68.5212 82.5475 68.4602 82.3959 68.3344L75.5563 62.6683C75.4741 62.6002 75.4062 62.5167 75.3563 62.4223C75.3065 62.328 75.2757 62.2248 75.2658 62.1186C75.2558 62.0123 75.2669 61.9052 75.2984 61.8033C75.3299 61.7013 75.3812 61.6066 75.4493 61.5245C75.5172 61.4424 75.6007 61.3744 75.6949 61.3246C75.7891 61.2747 75.8922 61.2439 75.9984 61.234C76.1045 61.2241 76.2115 61.2352 76.3134 61.2667C76.4152 61.2982 76.5098 61.3495 76.5918 61.4176ZM37.7915 68.2274C37.6543 68.0615 37.5884 67.8479 37.6085 67.6334C37.6285 67.419 37.7328 67.2213 37.8984 67.0837L44.7381 61.4176C44.904 61.2803 45.1176 61.2145 45.3321 61.2346C45.5465 61.2546 45.7442 61.3589 45.8818 61.5245C46.0191 61.6905 46.0849 61.9041 46.0649 62.1185C46.0448 62.3329 45.9405 62.5307 45.7749 62.6683L38.9353 68.3344C38.7694 68.4718 38.5557 68.5377 38.3413 68.5177C38.1268 68.4976 37.929 68.3932 37.7915 68.2274ZM60.6656 68.8149C60.2176 68.8149 59.8534 68.4508 59.8534 68.0027V64.5863C59.8534 64.1383 60.2176 63.7742 60.6656 63.7742C61.1136 63.7742 61.4777 64.1383 61.4777 64.5863V68.0027C61.4777 68.4508 61.1136 68.8149 60.6656 68.8149Z" fill="black"/>
</svg>
