<svg width="122" height="121" viewBox="0 0 122 121" fill="none" xmlns="http://www.w3.org/2000/svg">
<rect x="0.754395" y="-0.00341797" width="120.491" height="120.491" rx="60.2456" fill="#FF0000"/>
<rect x="12.408" y="11.6504" width="97.1841" height="97.1841" rx="48.592" fill="white"/>
<rect x="12.408" y="11.6504" width="97.1841" height="97.1841" rx="48.592" stroke="black" stroke-width="2"/>
<g clip-path="url(#clip0_4029_1595)">
<path d="M87.6733 80.8363C86.4127 80.8372 85.1801 80.4643 84.1315 79.7646C83.0829 79.0649 82.2654 78.0699 81.7823 76.9055C81.2993 75.7411 81.1724 74.4597 81.4178 73.2232C81.6632 71.9867 82.2697 70.8507 83.1608 69.959C84.0518 69.0673 85.1874 68.4599 86.4237 68.2136C87.66 67.9673 88.9416 68.0933 90.1063 68.5755C91.271 69.0577 92.2666 69.8745 92.9671 70.9226C93.6675 71.9707 94.0414 73.203 94.0414 74.4636C94.0406 76.1527 93.3695 77.7724 92.1756 78.9672C90.9817 80.162 89.3624 80.8343 87.6733 80.8363ZM87.6733 70.4155C86.8725 70.4146 86.0894 70.6512 85.423 71.0955C84.7567 71.5397 84.2372 72.1716 83.9301 72.9112C83.623 73.6508 83.5421 74.4649 83.6978 75.2504C83.8535 76.036 84.2387 76.7577 84.8046 77.3243C85.3705 77.8909 86.0918 78.2769 86.8772 78.4335C87.6626 78.5901 88.4767 78.5102 89.2167 78.2039C89.9566 77.8977 90.5891 77.3788 91.0342 76.713C91.4792 76.0472 91.7167 75.2644 91.7167 74.4636C91.7163 73.3909 91.2903 72.3622 90.5322 71.6033C89.7742 70.8443 88.746 70.4171 87.6733 70.4155ZM54.0909 80.8363C52.8302 80.8375 51.5975 80.4648 50.5487 79.7653C49.4999 79.0658 48.6821 78.071 48.1988 76.9066C47.7155 75.7422 47.5884 74.4607 47.8336 73.2241C48.0788 71.9875 48.6853 70.8514 49.5763 69.9596C50.4673 69.0677 51.6028 68.4601 52.8391 68.2137C54.0755 67.9673 55.3571 68.0932 56.522 68.5753C57.6868 69.0575 58.6825 69.8743 59.383 70.9224C60.0835 71.9705 60.4574 73.2029 60.4574 74.4636C60.4562 76.1523 59.7852 77.7715 58.5917 78.9662C57.3982 80.1609 55.7796 80.8334 54.0909 80.8363ZM54.0909 70.4155C53.29 70.4143 52.5067 70.6507 51.8402 71.0947C51.1737 71.5388 50.6539 72.1706 50.3465 72.9101C50.0392 73.6497 49.9581 74.4638 50.1136 75.2495C50.2691 76.0351 50.6542 76.757 51.2201 77.3238C51.7859 77.8905 52.5072 78.2767 53.2926 78.4334C54.0781 78.5901 54.8923 78.5103 55.6324 78.2041C56.3724 77.8979 57.005 77.379 57.4501 76.7132C57.8951 76.0474 58.1327 75.2645 58.1327 74.4636C58.1319 73.3913 57.706 72.3631 56.9484 71.6043C56.1907 70.8454 55.1631 70.418 54.0909 70.4155Z" fill="black"/>
<path d="M96.0576 75.6255H92.879C92.5707 75.6255 92.275 75.503 92.0571 75.2851C91.8391 75.0671 91.7166 74.7714 91.7166 74.4632C91.7166 74.1549 91.8391 73.8592 92.0571 73.6413C92.275 73.4233 92.5707 73.3008 92.879 73.3008H95.729V67.1373C95.7283 66.304 95.5149 65.4847 95.1091 64.7568L88.817 53.4759C88.7632 53.3796 88.6847 53.2994 88.5897 53.2436C88.4946 53.1877 88.3863 53.1583 88.2761 53.1582H79.7011V73.3055H82.469C82.7773 73.3055 83.0729 73.4279 83.2909 73.6459C83.5089 73.8639 83.6314 74.1595 83.6314 74.4678C83.6314 74.7761 83.5089 75.0717 83.2909 75.2897C83.0729 75.5077 82.7773 75.6302 82.469 75.6302H78.5387C78.2305 75.6302 77.9348 75.5077 77.7168 75.2897C77.4989 75.0717 77.3764 74.7761 77.3764 74.4678V51.9958C77.3764 51.6876 77.4989 51.3919 77.7168 51.1739C77.9348 50.956 78.2305 50.8335 78.5387 50.8335H88.2761C88.8005 50.8332 89.3154 50.973 89.7677 51.2384C90.22 51.5038 90.5932 51.8851 90.8487 52.343L97.1393 63.6255C97.7374 64.6994 98.0516 65.9081 98.0522 67.1373V73.6309C98.0513 74.1597 97.8409 74.6665 97.4671 75.0404C97.0932 75.4143 96.5863 75.6247 96.0576 75.6255ZM48.885 75.6255H37.7405C37.4322 75.6255 37.1365 75.503 36.9186 75.2851C36.7006 75.0671 36.5781 74.7714 36.5781 74.4632V65.524C36.5781 65.2157 36.7006 64.9201 36.9186 64.7021C37.1365 64.4841 37.4322 64.3616 37.7405 64.3616C38.0487 64.3616 38.3444 64.4841 38.5624 64.7021C38.7804 64.9201 38.9028 65.2157 38.9028 65.524V73.3008H48.885C49.1933 73.3008 49.4889 73.4233 49.7069 73.6413C49.9249 73.8592 50.0474 74.1549 50.0474 74.4632C50.0474 74.7714 49.9249 75.0671 49.7069 75.2851C49.4889 75.503 49.1933 75.6255 48.885 75.6255ZM37.7405 61.4C37.4322 61.4 37.1365 61.2775 36.9186 61.0595C36.7006 60.8416 36.5781 60.5459 36.5781 60.2376V52.4329C36.5781 52.1246 36.7006 51.829 36.9186 51.611C37.1365 51.393 37.4322 51.2705 37.7405 51.2705C38.0487 51.2705 38.3444 51.393 38.5624 51.611C38.7804 51.829 38.9028 52.1246 38.9028 52.4329V60.2423C38.9016 60.5497 38.7786 60.8442 38.5607 61.0612C38.3429 61.2782 38.0479 61.4 37.7405 61.4Z" fill="black"/>
<path d="M78.5388 75.6257H59.2951C58.9868 75.6257 58.6912 75.5032 58.4732 75.2853C58.2552 75.0673 58.1327 74.7716 58.1327 74.4634C58.1327 74.1551 58.2552 73.8594 58.4732 73.6415C58.6912 73.4235 58.9868 73.301 59.2951 73.301H77.3765V42.8926H38.9029V47.6799C38.9029 47.9881 38.7805 48.2838 38.5625 48.5018C38.3445 48.7197 38.0488 48.8422 37.7406 48.8422C37.4323 48.8422 37.1367 48.7197 36.9187 48.5018C36.7007 48.2838 36.5782 47.9881 36.5782 47.6799V42.6787C36.5791 42.1188 36.8019 41.5822 37.1979 41.1865C37.5939 40.7908 38.1308 40.5683 38.6906 40.5679H77.5904C78.1499 40.5687 78.6864 40.7913 79.082 41.187C79.4777 41.5827 79.7004 42.1191 79.7012 42.6787V74.4634C79.7012 74.7716 79.5787 75.0673 79.3607 75.2853C79.1428 75.5032 78.8471 75.6257 78.5388 75.6257ZM42.3357 66.6865H27.5832C27.275 66.6865 26.9793 66.564 26.7613 66.3461C26.5434 66.1281 26.4209 65.8324 26.4209 65.5242C26.4209 65.2159 26.5434 64.9202 26.7613 64.7023C26.9793 64.4843 27.275 64.3618 27.5832 64.3618H42.3357C42.644 64.3618 42.9396 64.4843 43.1576 64.7023C43.3756 64.9202 43.4981 65.2159 43.4981 65.5242C43.4981 65.8324 43.3756 66.1281 43.1576 66.3461C42.9396 66.564 42.644 66.6865 42.3357 66.6865Z" fill="black"/>
<path d="M54.0909 61.4002H33.505C33.1967 61.4002 32.9011 61.2778 32.6831 61.0598C32.4651 60.8418 32.3427 60.5462 32.3427 60.2379C32.3427 59.9296 32.4651 59.634 32.6831 59.416C32.9011 59.198 33.1967 59.0755 33.505 59.0755H54.0909C54.3992 59.0755 54.6948 59.198 54.9128 59.416C55.1308 59.634 55.2532 59.9296 55.2532 60.2379C55.2532 60.5462 55.1308 60.8418 54.9128 61.0598C54.6948 61.2778 54.3992 61.4002 54.0909 61.4002ZM32.8649 55.2631H24.8262C24.5179 55.2631 24.2222 55.1406 24.0043 54.9226C23.7863 54.7046 23.6638 54.409 23.6638 54.1007C23.6638 53.7924 23.7863 53.4968 24.0043 53.2788C24.2222 53.0608 24.5179 52.9384 24.8262 52.9384H32.8649C33.1732 52.9384 33.4689 53.0608 33.6868 53.2788C33.9048 53.4968 34.0273 53.7924 34.0273 54.1007C34.0273 54.409 33.9048 54.7046 33.6868 54.9226C33.4689 55.1406 33.1732 55.2631 32.8649 55.2631ZM45.7545 48.8423H31.5647C31.2564 48.8423 30.9607 48.7198 30.7428 48.5018C30.5248 48.2838 30.4023 47.9882 30.4023 47.6799C30.4023 47.3716 30.5248 47.076 30.7428 46.858C30.9607 46.64 31.2564 46.5176 31.5647 46.5176H45.7545C46.0628 46.5176 46.3585 46.64 46.5764 46.858C46.7944 47.076 46.9169 47.3716 46.9169 47.6799C46.9169 47.9882 46.7944 48.2838 46.5764 48.5018C46.3585 48.7198 46.0628 48.8423 45.7545 48.8423Z" fill="black"/>
</g>
<defs>
<clipPath id="clip0_4029_1595">
<rect width="74.39" height="74.39" fill="white" transform="translate(23.8049 23.0474)"/>
</clipPath>
</defs>
</svg>
