<svg width="48" height="48" viewBox="0 0 48 48" fill="none" xmlns="http://www.w3.org/2000/svg">
<circle cx="24" cy="23.9932" r="24" fill="#FF0000"/>
<path d="M32.21 20.8132L26 14.7732C25.474 14.273 24.7759 13.9941 24.05 13.9941C23.3241 13.9941 22.626 14.273 22.1 14.7732L15.89 20.7732C15.6141 21.0141 15.3922 21.3105 15.2388 21.6431C15.0854 21.9757 15.004 22.337 15 22.7032V31.2832C15.0105 32.0108 15.309 32.7046 15.8301 33.2125C16.3512 33.7205 17.0524 34.0012 17.78 33.9932H30.22C30.9476 34.0012 31.6488 33.7205 32.1699 33.2125C32.691 32.7046 32.9895 32.0108 33 31.2832V22.7032C32.9992 22.3517 32.929 22.0037 32.7935 21.6794C32.6579 21.3551 32.4596 21.0607 32.21 20.8132ZM23.44 16.2132C23.593 16.0734 23.7927 15.9958 24 15.9958C24.2073 15.9958 24.407 16.0734 24.56 16.2132L30 21.4932L24.53 26.7732C24.377 26.913 24.1773 26.9906 23.97 26.9906C23.7627 26.9906 23.563 26.913 23.41 26.7732L18 21.4932L23.44 16.2132ZM31 31.2832C30.9871 31.4795 30.8987 31.6631 30.7532 31.7955C30.6078 31.9279 30.4166 31.9988 30.22 31.9932H17.78C17.5834 31.9988 17.3922 31.9279 17.2468 31.7955C17.1013 31.6631 17.0129 31.4795 17 31.2832V23.3432L21.05 27.2432L19.39 28.8432C19.2037 29.0306 19.0992 29.284 19.0992 29.5482C19.0992 29.8124 19.2037 30.0658 19.39 30.2532C19.4829 30.3507 19.5946 30.4284 19.7184 30.4817C19.8421 30.535 19.9753 30.5627 20.11 30.5632C20.3675 30.5622 20.6146 30.4619 20.8 30.2832L22.57 28.5832C23.0096 28.8518 23.5148 28.994 24.03 28.994C24.5452 28.994 25.0504 28.8518 25.49 28.5832L27.26 30.2832C27.4454 30.4619 27.6925 30.5622 27.95 30.5632C28.0847 30.5627 28.2179 30.535 28.3416 30.4817C28.4654 30.4284 28.5771 30.3507 28.67 30.2532C28.8563 30.0658 28.9608 29.8124 28.9608 29.5482C28.9608 29.284 28.8563 29.0306 28.67 28.8432L27 27.2432L31 23.3432V31.2832Z" fill="#F0FDF4"/>
</svg>
