<svg width="48" height="48" viewBox="0 0 48 48" fill="none" xmlns="http://www.w3.org/2000/svg">
<circle cx="24" cy="23.9932" r="24" fill="#FF0000"/>
<path d="M31.4099 24.9932C31.1899 24.9932 30.9599 24.9232 30.7399 24.8732C30.2948 24.7736 29.857 24.6433 29.4299 24.4832C28.966 24.3144 28.4561 24.3232 27.9982 24.5078C27.5404 24.6924 27.167 25.0398 26.9499 25.4832L26.7299 25.9432C25.7587 25.3924 24.8616 24.7203 24.0599 23.9432C23.2828 23.1415 22.6107 22.2443 22.0599 21.2732L22.5199 21.0632C22.9633 20.8461 23.3107 20.4727 23.4953 20.0149C23.6799 19.557 23.6887 19.0471 23.5199 18.5832C23.3611 18.1522 23.2308 17.7112 23.1299 17.2632C23.0799 17.0432 23.0399 16.8132 23.0099 16.5932C22.8885 15.8888 22.5196 15.2509 21.9695 14.7944C21.4195 14.3379 20.7246 14.0928 20.0099 14.1032H16.9999C16.5772 14.1026 16.1591 14.1914 15.773 14.3637C15.387 14.5361 15.0418 14.7881 14.7599 15.1032C14.4722 15.4268 14.258 15.8089 14.132 16.2232C14.006 16.6375 13.9712 17.0741 14.0299 17.5032C14.5735 21.6653 16.4751 25.5318 19.4399 28.5032C22.4113 31.468 26.2778 33.3696 30.4399 33.9132C30.5697 33.9231 30.7001 33.9231 30.8299 33.9132C31.5673 33.9142 32.2793 33.6437 32.8299 33.1532C33.145 32.8713 33.397 32.5261 33.5693 32.14C33.7417 31.754 33.8305 31.3359 33.8299 30.9132V27.9132C33.8245 27.2222 33.5808 26.5543 33.1399 26.0223C32.6989 25.4902 32.0879 25.1267 31.4099 24.9932ZM31.8999 30.9932C31.8996 31.1327 31.8701 31.2706 31.8132 31.3981C31.7564 31.5255 31.6735 31.6397 31.5699 31.7332C31.4603 31.833 31.3299 31.9073 31.1881 31.9505C31.0463 31.9937 30.8966 32.0049 30.7499 31.9832C27.0182 31.4958 23.5502 29.7952 20.8799 27.1432C18.2074 24.4706 16.492 20.9905 15.9999 17.2432C15.9782 17.0965 15.9894 16.9468 16.0326 16.805C16.0758 16.6632 16.1501 16.5328 16.2499 16.4232C16.3445 16.3183 16.4603 16.2347 16.5896 16.1778C16.7188 16.1209 16.8587 16.0921 16.9999 16.0932H19.9999C20.2311 16.0875 20.4571 16.1621 20.6394 16.3044C20.8217 16.4466 20.9491 16.6476 20.9999 16.8732C20.9999 17.1432 21.0899 17.4232 21.1499 17.6932C21.2655 18.217 21.4192 18.7317 21.6099 19.2332L20.2099 19.8932C19.9693 20.0036 19.7823 20.205 19.6899 20.4532C19.5899 20.6966 19.5899 20.9697 19.6899 21.2132C21.1291 24.2959 23.6072 26.774 26.6899 28.2132C26.9334 28.3132 27.2065 28.3132 27.4499 28.2132C27.6981 28.1208 27.8995 27.9338 28.0099 27.6932L28.6399 26.2932C29.1558 26.4813 29.6837 26.635 30.2199 26.7532C30.4799 26.8132 30.7599 26.8632 31.0299 26.9032C31.2555 26.954 31.4565 27.0814 31.5987 27.2637C31.7409 27.446 31.8156 27.672 31.8099 27.9032L31.8999 30.9932ZM25.9999 13.9932C25.7699 13.9932 25.5299 13.9932 25.2999 13.9932C25.0347 14.0157 24.7893 14.1427 24.6177 14.3462C24.4461 14.5496 24.3624 14.8129 24.3849 15.0782C24.4075 15.3434 24.5344 15.5888 24.7379 15.7604C24.9414 15.932 25.2047 16.0157 25.4699 15.9932H25.9999C27.5912 15.9932 29.1174 16.6253 30.2426 17.7505C31.3678 18.8757 31.9999 20.4019 31.9999 21.9932C31.9999 22.1732 31.9999 22.3432 31.9999 22.5232C31.9778 22.787 32.0611 23.0488 32.2317 23.2513C32.4023 23.4537 32.6462 23.5803 32.9099 23.6032H32.9899C33.2403 23.6042 33.4819 23.5113 33.667 23.3428C33.8522 23.1743 33.9674 22.9425 33.9899 22.6932C33.9899 22.4632 33.9899 22.2232 33.9899 21.9932C33.9899 19.8732 33.1484 17.8398 31.6503 16.3398C30.1522 14.8398 28.1199 13.9958 25.9999 13.9932ZM27.9999 21.9932C27.9999 22.2584 28.1053 22.5127 28.2928 22.7003C28.4804 22.8878 28.7347 22.9932 28.9999 22.9932C29.2651 22.9932 29.5195 22.8878 29.707 22.7003C29.8946 22.5127 29.9999 22.2584 29.9999 21.9932C29.9999 20.9323 29.5785 19.9149 28.8284 19.1647C28.0782 18.4146 27.0608 17.9932 25.9999 17.9932C25.7347 17.9932 25.4804 18.0985 25.2928 18.2861C25.1053 18.4736 24.9999 18.7279 24.9999 18.9932C24.9999 19.2584 25.1053 19.5127 25.2928 19.7003C25.4804 19.8878 25.7347 19.9932 25.9999 19.9932C26.5304 19.9932 27.0391 20.2039 27.4141 20.579C27.7892 20.954 27.9999 21.4627 27.9999 21.9932Z" fill="#F0FDF4"/>
</svg>
