<svg width="48" height="48" viewBox="0 0 48 48" fill="none" xmlns="http://www.w3.org/2000/svg">
<circle cx="24" cy="23.9932" r="24" fill="#FF0000"/>
<path d="M33 13.9932H15C14.7348 13.9932 14.4804 14.0985 14.2929 14.2861C14.1054 14.4736 14 14.7279 14 14.9932V32.9932C14 33.2584 14.1054 33.5127 14.2929 33.7003C14.4804 33.8878 14.7348 33.9932 15 33.9932H33C33.2652 33.9932 33.5196 33.8878 33.7071 33.7003C33.8946 33.5127 34 33.2584 34 32.9932V14.9932C34 14.7279 33.8946 14.4736 33.7071 14.2861C33.5196 14.0985 33.2652 13.9932 33 13.9932ZM20 31.9932H16V27.9932H20V31.9932ZM20 25.9932H16V21.9932H20V25.9932ZM20 19.9932H16V15.9932H20V19.9932ZM26 31.9932H22V27.9932H26V31.9932ZM26 25.9932H22V21.9932H26V25.9932ZM26 19.9932H22V15.9932H26V19.9932ZM32 31.9932H28V27.9932H32V31.9932ZM32 25.9932H28V21.9932H32V25.9932ZM32 19.9932H28V15.9932H32V19.9932Z" fill="#F0FDF4"/>
</svg>
