<svg width="47" height="35" viewBox="0 0 47 35" fill="none" xmlns="http://www.w3.org/2000/svg">
<g clip-path="url(#clip0_2015_231)">
<path fill-rule="evenodd" clip-rule="evenodd" d="M0.101807 0H66.594V2.6976H0.101807V0ZM0.101807 5.38791H66.594V8.08551H0.101807V5.38791ZM0.101807 10.7685H66.594V13.4661H0.101807V10.7685ZM0.101807 16.1491H66.594V18.8467H0.101807V16.1491ZM0.101807 21.5443H66.594V24.2274H0.101807V21.5443ZM0.101807 26.9177H66.594V29.6153H0.101807V26.9177ZM0.101807 32.2983H66.594V34.9959H0.101807V32.2983Z" fill="#BD3D44"/>
<path fill-rule="evenodd" clip-rule="evenodd" d="M0.101807 2.69736H66.594V5.38767H0.101807V2.69736ZM0.101807 8.07798H66.594V10.7683H0.101807V8.07798ZM0.101807 13.4586H66.594V16.1562H0.101807V13.4586ZM0.101807 18.8465H66.594V21.5441H0.101807V18.8465ZM0.101807 24.2271H66.594V26.9247H0.101807V24.2271ZM0.101807 29.6077H66.594V32.3053H0.101807V29.6077Z" fill="white"/>
<path fill-rule="evenodd" clip-rule="evenodd" d="M0.101807 0H26.6987V18.8467H0.101807V0Z" fill="#192F5D"/>
<path fill-rule="evenodd" clip-rule="evenodd" d="M2.31829 0.802185L2.56618 1.55314H3.339L2.71199 2.01246L2.95259 2.76341L2.31829 2.2968L1.69128 2.75612L1.92458 2.01246L1.29028 1.55314H2.08498L2.31829 0.802185ZM6.7511 0.802185L6.9917 1.55314H7.77911L7.1448 2.01246L7.37811 2.76341L6.7511 2.2968L6.1168 2.75612L6.3574 2.01246L5.73039 1.55314H6.50321L6.7511 0.802185ZM11.1839 0.802185L11.4245 1.55314H12.2046L11.5776 2.01246L11.8182 2.76341L11.1839 2.2968L10.5496 2.75612L10.7902 2.01246L10.1559 1.55314H10.9433L11.1839 0.802185ZM15.6167 0.802185L15.8573 1.55314H16.6447L16.0104 2.01246L16.251 2.76341L15.6167 2.2968L14.9824 2.75612L15.2303 2.01246L14.5887 1.55314H15.3688L15.6167 0.802185ZM20.0495 0.802185L20.2901 1.55314H21.0703L20.4432 2.01246L20.6838 2.76341L20.0495 2.2968L19.4152 2.75612L19.6558 2.01246L19.0288 1.55314H19.8089L20.0495 0.802185ZM24.4824 0.802185L24.723 1.55314H25.5104L24.8688 2.01246L25.1167 2.76341L24.4824 2.2968L23.8481 2.75612L24.0959 2.01246L23.4543 1.55314H24.2418L24.4824 0.802185ZM4.53469 2.6978L4.77529 3.44146H5.56999L4.93569 3.89349L5.16899 4.64444L4.54928 4.18512L3.91498 4.64444L4.14099 3.89349L3.52856 3.44146H4.30868L4.53469 2.6978ZM8.96751 2.6978L9.21539 3.44146H9.99551L9.35392 3.89349L9.60181 4.64444L8.96751 4.18512L8.33321 4.64444L8.5738 3.89349L7.9395 3.44146H8.72691L8.96751 2.6978ZM13.4003 2.6978L13.6409 3.44146H14.4283L13.794 3.89349L14.0346 4.64444L13.4003 4.18512L12.766 4.64444L13.0066 3.89349L12.3796 3.44146H13.1524L13.4003 2.6978ZM17.8331 2.6978L18.081 3.44146H18.8611L18.2195 3.89349L18.4674 4.64444L17.8331 4.18512L17.2061 4.64444L17.4394 3.89349L16.8051 3.44146H17.5998L17.8331 2.6978ZM22.2659 2.6978L22.5065 3.44146H23.294L22.6597 3.89349L22.9002 4.64444L22.2659 4.18512L21.6316 4.64444L21.8722 3.89349L21.2452 3.44146H22.0254L22.2659 2.6978ZM2.31829 4.56424L2.56618 5.32249H3.339L2.71199 5.78181L2.95259 6.52547L2.31829 6.06615L1.69128 6.52547L1.92458 5.78181L1.29028 5.32249H2.08498L2.31829 4.56424ZM6.7511 4.56424L6.9917 5.32249H7.77911L7.1448 5.78181L7.37811 6.52547L6.7511 6.06615L6.1168 6.52547L6.3574 5.77452L5.73039 5.3152H6.50321L6.7511 4.56424ZM11.1839 4.56424L11.4245 5.3152H12.2046L11.5776 5.77452L11.8182 6.51818L11.1839 6.05886L10.5496 6.51818L10.7902 5.76723L10.1559 5.30791H10.9433L11.1839 4.56424ZM15.6167 4.56424L15.8573 5.3152H16.6447L16.0104 5.77452L16.251 6.51818L15.6167 6.05886L14.9824 6.51818L15.2303 5.76723L14.5887 5.30791H15.3688L15.6167 4.56424ZM20.0495 4.56424L20.2901 5.3152H21.0703L20.4432 5.77452L20.6838 6.51818L20.0495 6.05886L19.4152 6.51818L19.6558 5.76723L19.0288 5.30791H19.8089L20.0495 4.56424ZM24.4824 4.56424L24.723 5.3152H25.5104L24.8688 5.77452L25.1167 6.51818L24.4824 6.05886L23.8481 6.51818L24.0959 5.76723L23.4543 5.30791H24.2418L24.4824 4.56424ZM4.53469 6.45985L4.77529 7.20352H5.56999L4.93569 7.66284L5.17629 8.41379L4.54199 7.94718L3.90768 8.4065L4.14828 7.66284L3.52127 7.20352H4.30139L4.53469 6.45985ZM8.96751 6.45985L9.21539 7.20352H9.99551L9.35392 7.66284L9.60181 8.41379L8.96751 7.94718L8.33321 8.4065L8.5738 7.66284L7.9395 7.20352H8.72691L8.96751 6.45985ZM13.4003 6.45985L13.6409 7.20352H14.4283L13.794 7.66284L14.0346 8.41379L13.4003 7.94718L12.766 8.4065L13.0066 7.66284L12.3796 7.20352H13.1524L13.4003 6.45985ZM17.8331 6.45985L18.081 7.20352H18.8611L18.2268 7.66284L18.4674 8.41379L17.8331 7.94718L17.2061 8.4065L17.4394 7.66284L16.8051 7.20352H17.5998L17.8331 6.45985ZM22.2659 6.45985L22.5065 7.20352H23.294L22.6597 7.66284L22.9002 8.41379L22.2659 7.94718L21.6316 8.4065L21.8722 7.66284L21.2452 7.20352H22.0254L22.2659 6.45985ZM2.31829 8.34817L2.56618 9.09184H3.339L2.71199 9.55116L2.95259 10.3021L2.31829 9.8355L1.69128 10.2948L1.92458 9.55116L1.29028 9.09184H2.08498L2.31829 8.34817ZM6.7511 8.34817L6.9917 9.09184H7.77911L7.1448 9.55116L7.37811 10.2948L6.7511 9.8355L6.1168 10.2948L6.3574 9.55116L5.73039 9.09184H6.50321L6.7511 8.34817ZM11.1839 8.34817L11.4245 9.09184H12.2046L11.5776 9.55116L11.8182 10.3021L11.1839 9.8355L10.5496 10.2948L10.7902 9.55116L10.1559 9.09184H10.9433L11.1839 8.34817ZM15.6167 8.34817L15.8573 9.09184H16.6447L16.0104 9.55116L16.251 10.3021L15.6167 9.8355L14.9824 10.2948L15.2303 9.55116L14.5887 9.09184H15.3688L15.6167 8.34817ZM20.0495 8.34817L20.2901 9.09184H21.0703L20.4432 9.55116L20.6838 10.3021L20.0495 9.8355L19.4152 10.2948L19.6558 9.55116L19.0288 9.09184H19.8089L20.0495 8.34817ZM24.4824 8.34817L24.723 9.09184H25.5104L24.8688 9.55116L25.1167 10.3021L24.4824 9.8355L23.8481 10.2948L24.0886 9.55116L23.4471 9.09184H24.2345L24.4824 8.34817ZM4.53469 10.2292L4.77529 10.9802H5.56999L4.93569 11.4322L5.17629 12.1831L4.54199 11.7165L3.90768 12.1831L4.14828 11.4322L3.52127 10.9729H4.30139L4.53469 10.2292ZM8.96751 10.2292L9.21539 10.9802H9.99551L9.35392 11.4322L9.60181 12.1831L8.96751 11.7165L8.33321 12.1831L8.5738 11.4322L7.9395 10.9729H8.72691L8.96751 10.2292ZM13.4003 10.2292L13.6409 10.9802H14.4283L13.794 11.4322L14.0346 12.1831L13.4003 11.7165L12.766 12.1831L13.0066 11.4322L12.3796 10.9729H13.1524L13.4003 10.2292ZM17.8331 10.2292L18.081 10.9802H18.8611L18.2268 11.4322L18.4674 12.1831L17.8331 11.7165L17.2061 12.1831L17.4394 11.4322L16.8051 10.9729H17.5998L17.8331 10.2292ZM22.2659 10.2292L22.5065 10.9802H23.294L22.6597 11.4322L22.9002 12.1831L22.2659 11.7165L21.6316 12.1831L21.8722 11.4322L21.2452 10.9729H22.0254L22.2659 10.2292ZM2.31829 12.1102L2.56618 12.8612H3.339L2.71199 13.3205L2.95259 14.0569L2.31829 13.6048L1.69128 14.0569L1.92458 13.3132L1.29028 12.8539H2.08498L2.31829 12.1102ZM6.7511 12.1102L6.9917 12.8612H7.77911L7.1448 13.3205L7.3854 14.0569L6.7511 13.6048L6.1168 14.0569L6.36469 13.3132L5.73039 12.8539H6.50321L6.7511 12.1102ZM11.1839 12.1102L11.4245 12.8612H12.2046L11.5776 13.3205L11.8182 14.0569L11.1839 13.6048L10.5496 14.0569L10.7902 13.3132L10.1559 12.8539H10.9433L11.1839 12.1102ZM15.6167 12.1102L15.8573 12.8612H16.6447L16.0104 13.3205L16.251 14.0569L15.6167 13.6048L14.9824 14.0569L15.2303 13.3132L14.5887 12.8539H15.3688L15.6167 12.1102ZM20.0495 12.1102L20.2901 12.8612H21.0703L20.4432 13.3205L20.6838 14.0569L20.0495 13.6048L19.4152 14.0569L19.6558 13.3132L19.0288 12.8539H19.8089L20.0495 12.1102ZM24.4824 12.1102L24.723 12.8612H25.5104L24.8688 13.3205L25.1167 14.0569L24.4824 13.6048L23.8481 14.0569L24.0959 13.3132L23.4543 12.8539H24.2418L24.4824 12.1102ZM4.53469 13.9986L4.77529 14.7422H5.56999L4.93569 15.2015L5.17629 15.9525L4.54199 15.4859L3.90768 15.9452L4.14828 15.2015L3.52127 14.7422H4.30139L4.53469 13.9986ZM8.96751 13.9986L9.21539 14.7422H9.99551L9.35392 15.2015L9.60181 15.9525L8.96751 15.4859L8.33321 15.9452L8.5738 15.2015L7.9395 14.7422H8.72691L8.96751 13.9986ZM13.4003 13.9986L13.6409 14.7422H14.4283L13.794 15.2015L14.0346 15.9525L13.4003 15.4859L12.766 15.9452L13.0066 15.2015L12.3796 14.7422H13.1524L13.4003 13.9986ZM17.8331 13.9986L18.081 14.7422H18.8611L18.2268 15.2015L18.4674 15.9525L17.8331 15.4859L17.2061 15.9452L17.4394 15.2015L16.8051 14.7422H17.5998L17.8331 13.9986ZM22.2659 13.9986L22.5065 14.7422H23.294L22.6597 15.2015L22.9002 15.9525L22.2659 15.4859L21.6316 15.9452L21.8722 15.2015L21.2452 14.7422H22.0254L22.2659 13.9986ZM2.31829 15.8869L2.56618 16.6305H3.339L2.71199 17.0899L2.95259 17.8335L2.31829 17.3742L1.69128 17.8335L1.92458 17.0826L1.29028 16.6232H2.08498L2.31829 15.8869ZM6.7511 15.8869L6.9917 16.6305H7.77911L7.1448 17.0899L7.3854 17.8335L6.7511 17.3742L6.1168 17.8335L6.36469 17.0826L5.73039 16.6232H6.50321L6.7511 15.8869ZM11.1839 15.8869L11.4245 16.6305H12.2046L11.5922 17.0899L11.8328 17.8335L11.1985 17.3742L10.5642 17.8335L10.8048 17.0826L10.1705 16.6232H10.9579L11.1839 15.8869ZM15.6167 15.8869L15.8573 16.6305H16.6447L16.0104 17.0899L16.251 17.8335L15.6167 17.3742L14.9824 17.8335L15.2303 17.0826L14.5887 16.6232H15.3688L15.6167 15.8869ZM20.0495 15.8869L20.2901 16.6305H21.0703L20.4432 17.0899L20.6838 17.8335L20.0495 17.3742L19.4152 17.8335L19.6558 17.0826L19.0288 16.6232H19.8089L20.0495 15.8869ZM24.4824 15.8869L24.723 16.6305H25.5104L24.8688 17.0899L25.1167 17.8335L24.4824 17.3742L23.8481 17.8335L24.0959 17.0826L23.4543 16.6232H24.2418L24.4824 15.8869Z" fill="white"/>
</g>
<defs>
<clipPath id="clip0_2015_231">
<rect x="0.101807" width="46.6612" height="34.9959" rx="7.56084" fill="white"/>
</clipPath>
</defs>
</svg>
