<svg width="30" height="30" viewBox="0 0 30 30" fill="none" xmlns="http://www.w3.org/2000/svg">
<g clip-path="url(#clip0_4201_2066)">
<path d="M6.33521 20.4121H6.33063C6.09605 20.4121 5.9082 20.6023 5.9082 20.8369C5.9082 21.0714 6.10064 21.2616 6.33521 21.2616C6.44786 21.2616 6.5559 21.2169 6.63555 21.1372C6.71521 21.0575 6.75996 20.9495 6.75996 20.8369C6.75996 20.7242 6.71521 20.6162 6.63555 20.5365C6.5559 20.4569 6.44786 20.4121 6.33521 20.4121ZM9.96701 20.4121H9.96248C9.72791 20.4121 9.54 20.6023 9.54 20.8369C9.54 21.0714 9.73244 21.2616 9.96701 21.2616C10.0797 21.2616 10.1877 21.2169 10.2674 21.1372C10.347 21.0575 10.3918 20.9495 10.3918 20.8369C10.3918 20.7242 10.347 20.6162 10.2674 20.5365C10.1877 20.4569 10.0797 20.4121 9.96701 20.4121ZM24.9482 20.4121H24.9436C24.7091 20.4121 24.5212 20.6023 24.5212 20.8369C24.5212 21.0714 24.7136 21.2616 24.9482 21.2616C25.0608 21.2616 25.1688 21.2169 25.2485 21.1372C25.3282 21.0575 25.3729 20.9495 25.3729 20.8369C25.3729 20.7242 25.3282 20.6162 25.2485 20.5365C25.1688 20.4569 25.0608 20.4121 24.9482 20.4121Z" fill="black"/>
<path d="M29.5177 15.277L28.9466 14.7059L27.7961 11.2544C27.8927 11.2236 27.9751 11.1594 28.0284 11.0732C28.0818 10.9871 28.1026 10.8847 28.087 10.7845C28.0715 10.6844 28.0207 10.5931 27.9437 10.5271C27.8668 10.4612 27.7688 10.4249 27.6674 10.4249H23.5524V8.57988C23.5524 8.09534 23.1583 7.70117 22.6737 7.70117H1.79082C1.30627 7.70117 0.912109 8.09539 0.912109 8.57988V18.5673C0.912109 19.0518 1.30627 19.446 1.79082 19.446H2.27401V20.3829C2.27401 20.8675 2.66817 21.2616 3.15272 21.2616H4.13083C4.32995 22.2946 5.24032 23.0775 6.33055 23.0775C7.07708 23.0775 7.73906 22.7102 8.14642 22.1471C8.55384 22.7102 9.21582 23.0775 9.96235 23.0775C11.0526 23.0775 11.963 22.2946 12.1621 21.2616H22.7438C22.9429 22.2946 23.8533 23.0775 24.9435 23.0775C26.179 23.0775 27.1841 22.0723 27.1841 20.8369C27.1841 20.8272 27.1835 20.8176 27.1834 20.8079H29.0293C29.5138 20.8079 29.908 20.4137 29.908 19.9292V16.2193C29.9085 16.0442 29.8742 15.8708 29.8072 15.709C29.7402 15.5473 29.6418 15.4004 29.5177 15.277ZM4.13083 20.4122H3.15272C3.14889 20.4122 3.14509 20.4114 3.14154 20.41C3.138 20.4085 3.13477 20.4064 3.13206 20.4036C3.12935 20.4009 3.12719 20.3977 3.12573 20.3942C3.12426 20.3906 3.1235 20.3868 3.1235 20.383V19.446H4.57585C4.35181 19.7275 4.19913 20.059 4.13083 20.4122ZM6.33055 22.2281C5.56346 22.2281 4.93943 21.604 4.93943 20.837C4.93943 20.0729 5.55882 19.4508 6.32189 19.446H6.33933C7.1024 19.4508 7.72179 20.0728 7.72179 20.837C7.72173 21.604 7.09764 22.2281 6.33055 22.2281ZM9.96241 22.2281C9.19532 22.2281 8.57122 21.604 8.57122 20.837C8.57122 20.0729 9.19062 19.4508 9.95368 19.446H9.97113C10.7342 19.4508 11.3536 20.0728 11.3536 20.837C11.3535 21.604 10.7295 22.2281 9.96241 22.2281ZM22.7438 20.4122H12.1621C12.0938 20.059 11.9411 19.7275 11.7171 19.446H19.9498C20.0625 19.446 20.1705 19.4012 20.2501 19.3216C20.3298 19.2419 20.3745 19.1339 20.3745 19.0212C20.3745 18.9086 20.3298 18.8006 20.2501 18.7209C20.1705 18.6413 20.0625 18.5965 19.9498 18.5965H1.79082C1.78307 18.5965 1.77564 18.5934 1.77016 18.5879C1.76468 18.5825 1.7616 18.575 1.7616 18.5673V8.57988C1.7616 8.56374 1.77468 8.55066 1.79082 8.55066H22.6737C22.6898 8.55066 22.7029 8.56374 22.7029 8.57988V18.5966H21.7659C21.6532 18.5966 21.5452 18.6413 21.4656 18.721C21.3859 18.8006 21.3412 18.9087 21.3412 19.0213C21.3412 19.134 21.3859 19.242 21.4656 19.3216C21.5452 19.4013 21.6532 19.446 21.7659 19.446H23.1889C22.9648 19.7275 22.8121 20.059 22.7438 20.4122ZM28.1374 14.9645H25.3975C25.3898 14.9645 25.3823 14.9615 25.3769 14.956C25.3714 14.9505 25.3683 14.9431 25.3683 14.9353V13.0902H27.5126L28.1374 14.9645ZM24.9436 22.2281C24.1765 22.2281 23.5524 21.604 23.5524 20.837C23.5524 20.0729 24.1718 19.4508 24.9349 19.446H24.9436L24.9466 19.4459C25.7123 19.4475 26.3348 20.0709 26.3348 20.8369C26.3347 21.604 25.7106 22.2281 24.9436 22.2281ZM29.0585 19.9293C29.0585 19.937 29.0555 19.9445 29.05 19.95C29.0445 19.9554 29.0371 19.9585 29.0293 19.9585H27.0046C26.6622 19.1585 25.8674 18.5964 24.9436 18.5964C24.9406 18.5964 24.9378 18.5966 24.9348 18.5966H23.5524V11.3035C23.5524 11.2874 23.5655 11.2743 23.5817 11.2743H26.9073L27.2294 12.2407H24.9436C24.8309 12.2407 24.7229 12.2854 24.6432 12.3651C24.5636 12.4447 24.5188 12.5528 24.5188 12.6654V14.9353C24.5188 15.4199 24.913 15.814 25.3975 15.814H28.8534L28.917 15.8777C28.962 15.9225 28.9977 15.9757 29.022 16.0343C29.0463 16.093 29.0587 16.1559 29.0585 16.2193V17.2347H28.5754C28.4627 17.2347 28.3547 17.2794 28.275 17.3591C28.1954 17.4387 28.1506 17.5468 28.1506 17.6594C28.1506 17.7721 28.1954 17.8801 28.275 17.9597C28.3547 18.0394 28.4627 18.0841 28.5754 18.0841H29.0585V19.9293Z" fill="black"/>
<path d="M21.3113 16.7812H3.15228C3.03963 16.7812 2.9316 16.826 2.85194 16.9057C2.77229 16.9853 2.72754 17.0933 2.72754 17.206C2.72754 17.3186 2.77229 17.4267 2.85194 17.5063C2.9316 17.586 3.03963 17.6307 3.15228 17.6307H21.3113C21.4239 17.6307 21.5319 17.586 21.6116 17.5063C21.6913 17.4267 21.736 17.3186 21.736 17.206C21.736 17.0933 21.6913 16.9853 21.6116 16.9057C21.5319 16.826 21.4239 16.7812 21.3113 16.7812Z" fill="black"/>
</g>
<defs>
<clipPath id="clip0_4201_2066">
<rect width="28.9959" height="28.9959" fill="white" transform="translate(0.912109 0.891602)"/>
</clipPath>
</defs>
</svg>
