<svg width="30" height="30" viewBox="0 0 30 30" fill="none" xmlns="http://www.w3.org/2000/svg">
<g clip-path="url(#clip0_4201_2057)">
<path d="M9.71905 13.5771H8.81292C8.69277 13.5771 8.57753 13.6249 8.49256 13.7098C8.4076 13.7948 8.35986 13.9101 8.35986 14.0302C8.35986 14.1504 8.4076 14.2656 8.49256 14.3506C8.57753 14.4355 8.69277 14.4833 8.81292 14.4833H9.71905C9.83921 14.4833 9.95444 14.4355 10.0394 14.3506C10.1244 14.2656 10.1721 14.1504 10.1721 14.0302C10.1721 13.9101 10.1244 13.7948 10.0394 13.7098C9.95444 13.6249 9.83921 13.5771 9.71905 13.5771ZM15.6088 13.5771H14.7027C14.5826 13.5771 14.4673 13.6249 14.3824 13.7098C14.2974 13.7948 14.2497 13.9101 14.2497 14.0302C14.2497 14.1504 14.2974 14.2656 14.3824 14.3506C14.4673 14.4355 14.5826 14.4833 14.7027 14.4833H15.6088C15.729 14.4833 15.8442 14.4355 15.9292 14.3506C16.0142 14.2656 16.0619 14.1504 16.0619 14.0302C16.0619 13.9101 16.0142 13.7948 15.9292 13.7098C15.8442 13.6249 15.729 13.5771 15.6088 13.5771Z" fill="black"/>
<path d="M27.2347 12.9185L23.2278 12.3843C22.5381 12.2908 21.8979 11.9743 21.4047 11.4832L17.8196 7.89767C17.6097 7.68668 17.3601 7.51942 17.0851 7.40557C16.8101 7.29172 16.5152 7.23353 16.2176 7.23438H3.73896C3.27408 7.23506 2.8206 7.3784 2.4398 7.64505C2.05899 7.91169 1.7692 8.28879 1.60957 8.72541L0.559826 11.6159C0.324819 12.261 0.204752 12.9423 0.205079 13.6289V18.5609C0.205079 18.9214 0.348278 19.2671 0.603175 19.522C0.858071 19.7769 1.20378 19.9201 1.56426 19.9201H2.95969C3.06802 20.6744 3.44465 21.3643 4.02051 21.8634C4.59637 22.3625 5.33285 22.6372 6.09488 22.6372C6.8569 22.6372 7.59338 22.3625 8.16924 21.8634C8.7451 21.3643 9.12173 20.6744 9.23006 19.9201H19.2699C19.3782 20.6744 19.7549 21.3643 20.3307 21.8634C20.9066 22.3625 21.6431 22.6372 22.4051 22.6372C23.1671 22.6372 23.9036 22.3625 24.4794 21.8634C25.0553 21.3643 25.4319 20.6744 25.5403 19.9201H27.8418C28.2023 19.9201 28.548 19.7769 28.8029 19.522C29.0578 19.2671 29.201 18.9214 29.201 18.5609V15.163C29.1993 14.6145 28.9993 14.0852 28.6379 13.6727C28.2766 13.2602 27.7782 12.9923 27.2347 12.9185ZM28.2949 16.1959L27.6031 16.06C27.4106 16.0211 27.2288 15.941 27.0701 15.8253C26.9114 15.7095 26.7797 15.5609 26.6838 15.3895H28.2949V16.1959ZM1.1112 14.4834H2.3467C2.24709 14.6508 2.09477 14.7805 1.91357 14.8522L1.1112 15.1734V14.4834ZM6.09488 16.2956C5.3329 16.2965 4.59671 16.5717 4.021 17.0709C3.44529 17.5701 3.06855 18.2598 2.95969 19.014H2.50165C2.61135 18.1384 3.03701 17.3329 3.69866 16.749C4.36031 16.1651 5.21241 15.8428 6.09488 15.8428C6.97734 15.8428 7.82945 16.1651 8.4911 16.749C9.15275 17.3329 9.5784 18.1384 9.68811 19.014H9.23006C9.12121 18.2598 8.74446 17.5701 8.16875 17.0709C7.59304 16.5717 6.85686 16.2965 6.09488 16.2956ZM6.09488 21.7323C5.64684 21.7323 5.20887 21.5995 4.83634 21.3506C4.46381 21.1017 4.17346 20.7479 4.00201 20.3339C3.83055 19.92 3.78569 19.4645 3.8731 19.0251C3.9605 18.5857 4.17625 18.182 4.49306 17.8652C4.80987 17.5484 5.21351 17.3327 5.65294 17.2453C6.09236 17.1579 6.54784 17.2027 6.96177 17.3742C7.3757 17.5456 7.72949 17.836 7.97841 18.2085C8.22733 18.581 8.36018 19.019 8.36018 19.467C8.35946 20.0676 8.12057 20.6434 7.6959 21.0681C7.27122 21.4927 6.69545 21.7316 6.09488 21.7323ZM22.4051 16.2956C21.6431 16.2965 20.9069 16.5717 20.3312 17.0709C19.7555 17.5701 19.3788 18.2598 19.2699 19.014H18.8119C18.9216 18.1384 19.3472 17.3329 20.0089 16.749C20.6705 16.1651 21.5226 15.8428 22.4051 15.8428C23.2876 15.8428 24.1397 16.1651 24.8013 16.749C25.463 17.3329 25.8886 18.1384 25.9983 19.014H25.5403C25.4314 18.2598 25.0547 17.5701 24.479 17.0709C23.9032 16.5717 23.1671 16.2965 22.4051 16.2956ZM22.4051 21.7323C21.957 21.7323 21.5191 21.5995 21.1465 21.3506C20.774 21.1017 20.4837 20.7479 20.3122 20.3339C20.1408 19.92 20.0959 19.4645 20.1833 19.0251C20.2707 18.5857 20.4865 18.182 20.8033 17.8652C21.1201 17.5484 21.5237 17.3327 21.9631 17.2453C22.4026 17.1579 22.858 17.2027 23.272 17.3742C23.6859 17.5456 24.0397 17.836 24.2886 18.2085C24.5375 18.581 24.6704 19.019 24.6704 19.467C24.6697 20.0676 24.4308 20.6434 24.0061 21.0681C23.5814 21.4927 23.0057 21.7316 22.4051 21.7323ZM27.8418 19.014H26.9126C26.8004 17.8963 26.277 16.8602 25.4441 16.1067C24.6111 15.3531 23.5279 14.9359 22.4046 14.9359C21.2814 14.9359 20.1982 15.3531 19.3652 16.1067C18.5322 16.8602 18.0089 17.8963 17.8967 19.014H10.6024C10.4902 17.8963 9.96684 16.8602 9.13386 16.1067C8.30088 15.3531 7.21768 14.9359 6.09442 14.9359C4.97117 14.9359 3.88796 15.3531 3.05498 16.1067C2.222 16.8602 1.69865 17.8963 1.58646 19.014H1.56426C1.4441 19.014 1.32887 18.9662 1.2439 18.8813C1.15893 18.7963 1.1112 18.6811 1.1112 18.5609V16.1493L2.2502 15.6935C2.58333 15.5616 2.86897 15.3323 3.06988 15.0356C3.27079 14.7389 3.37765 14.3886 3.37651 14.0303C3.37651 13.9101 3.32877 13.7949 3.24381 13.7099C3.15884 13.625 3.04361 13.5772 2.92345 13.5772H1.11347C1.11839 13.0139 1.21904 12.4555 1.41113 11.9258L2.46223 9.03485C2.55815 8.77318 2.73195 8.54718 2.96021 8.38728C3.18848 8.22738 3.46026 8.14126 3.73896 8.14051H16.2176C16.3962 8.14 16.5731 8.1749 16.7381 8.24318C16.9032 8.31145 17.053 8.41176 17.179 8.53829L20.7641 12.1238C21.3981 12.7557 22.2216 13.1626 23.1087 13.2823L27.1169 13.8165C27.3221 13.8447 27.5181 13.9195 27.69 14.0351C27.8619 14.1506 28.0051 14.304 28.1087 14.4834H26.0296C25.9578 14.4833 25.887 14.5004 25.8231 14.5331C25.7592 14.5658 25.704 14.6132 25.662 14.6714C25.62 14.7297 25.5924 14.797 25.5816 14.868C25.5708 14.939 25.5769 15.0115 25.5996 15.0796L25.7201 15.442C25.8469 15.8207 26.0712 16.1592 26.3705 16.4234C26.6699 16.6877 27.0336 16.8683 27.425 16.9471L28.2949 17.1202V18.5609C28.2949 18.6811 28.2471 18.7963 28.1622 18.8813C28.0772 18.9662 27.962 19.014 27.8418 19.014Z" fill="black"/>
<path d="M6.09496 17.655C5.73654 17.655 5.38616 17.7613 5.08814 17.9604C4.79011 18.1595 4.55783 18.4426 4.42067 18.7737C4.2835 19.1048 4.24761 19.4692 4.31754 19.8208C4.38747 20.1723 4.56007 20.4952 4.81351 20.7487C5.06696 21.0021 5.38987 21.1747 5.74141 21.2446C6.09295 21.3146 6.45734 21.2787 6.78848 21.1415C7.11963 21.0044 7.40266 20.7721 7.60179 20.4741C7.80092 20.176 7.90721 19.8257 7.90721 19.4672C7.90721 18.9866 7.71628 18.5256 7.37642 18.1858C7.03655 17.8459 6.5756 17.655 6.09496 17.655ZM6.09496 20.3733C5.91575 20.3733 5.74056 20.3202 5.59155 20.2206C5.44254 20.1211 5.3264 19.9796 5.25782 19.814C5.18923 19.6484 5.17129 19.4662 5.20625 19.2904C5.24122 19.1147 5.32752 18.9532 5.45424 18.8265C5.58096 18.6998 5.74242 18.6135 5.91819 18.5785C6.09396 18.5435 6.27615 18.5615 6.44172 18.6301C6.60729 18.6987 6.74881 18.8148 6.84838 18.9638C6.94794 19.1128 7.00109 19.288 7.00109 19.4672C7.00109 19.7075 6.90562 19.938 6.73569 20.1079C6.56576 20.2779 6.33528 20.3733 6.09496 20.3733ZM22.4052 17.655C22.0467 17.655 21.6964 17.7613 21.3983 17.9604C21.1003 18.1595 20.868 18.4426 20.7309 18.7737C20.5937 19.1048 20.5578 19.4692 20.6277 19.8208C20.6977 20.1723 20.8703 20.4952 21.1237 20.7487C21.3772 21.0021 21.7001 21.1747 22.0516 21.2446C22.4032 21.3146 22.7675 21.2787 23.0987 21.1415C23.4298 21.0044 23.7129 20.7721 23.912 20.4741C24.1111 20.176 24.2174 19.8257 24.2174 19.4672C24.2174 18.9866 24.0265 18.5256 23.6866 18.1858C23.3468 17.8459 22.8858 17.655 22.4052 17.655ZM22.4052 20.3733C22.226 20.3733 22.0508 20.3202 21.9018 20.2206C21.7527 20.1211 21.6366 19.9796 21.568 19.814C21.4994 19.6484 21.4815 19.4662 21.5165 19.2904C21.5514 19.1147 21.6377 18.9532 21.7644 18.8265C21.8912 18.6998 22.0526 18.6135 22.2284 18.5785C22.4042 18.5435 22.5864 18.5615 22.7519 18.6301C22.9175 18.6987 23.059 18.8148 23.1586 18.9638C23.2582 19.1128 23.3113 19.288 23.3113 19.4672C23.3113 19.7075 23.2158 19.938 23.0459 20.1079C22.876 20.2779 22.6455 20.3733 22.4052 20.3733ZM6.09496 8.59375H4.00454C3.72805 8.59465 3.45834 8.67947 3.23109 8.83698C3.00385 8.99449 2.82977 9.21727 2.73189 9.47586L2.0523 11.2881C1.97522 11.4937 1.94911 11.715 1.97621 11.9329C2.00331 12.1508 2.0828 12.3589 2.20789 12.5394C2.33298 12.7199 2.49994 12.8674 2.69448 12.9693C2.88902 13.0711 3.10535 13.1244 3.32495 13.1244H6.09496C6.21512 13.1244 6.33036 13.0766 6.41533 12.9917C6.50029 12.9067 6.54803 12.7915 6.54803 12.6713V9.04681C6.54803 8.92665 6.50029 8.81141 6.41533 8.72645C6.33036 8.64148 6.21512 8.59375 6.09496 8.59375ZM5.6419 12.2182H3.32495C3.25176 12.2182 3.17967 12.2005 3.11484 12.1665C3.05002 12.1325 2.99438 12.0834 2.9527 12.0232C2.91102 11.963 2.88454 11.8937 2.87551 11.821C2.86649 11.7484 2.87519 11.6747 2.90088 11.6062L3.58047 9.79391C3.61284 9.70757 3.67078 9.63316 3.74655 9.58062C3.82233 9.52808 3.91233 9.49991 4.00454 9.49987H5.6419V12.2182ZM11.9848 8.59375H7.90721C7.78705 8.59375 7.67181 8.64148 7.58685 8.72645C7.50188 8.81141 7.45415 8.92665 7.45415 9.04681V12.6713C7.45415 12.7915 7.50188 12.9067 7.58685 12.9917C7.67181 13.0766 7.78705 13.1244 7.90721 13.1244H11.9848C12.1049 13.1244 12.2202 13.0766 12.3051 12.9917C12.3901 12.9067 12.4378 12.7915 12.4378 12.6713V9.04681C12.4378 8.92665 12.3901 8.81141 12.3051 8.72645C12.2202 8.64148 12.1049 8.59375 11.9848 8.59375ZM11.5317 12.2182H8.36027V9.49987H11.5317V12.2182ZM17.3667 9.25703C17.3249 9.21376 17.2749 9.17924 17.2196 9.1555C17.1643 9.13176 17.1049 9.11926 17.0447 9.11873C16.9846 9.11821 16.9249 9.12968 16.8692 9.15246C16.8136 9.17524 16.763 9.20888 16.7204 9.25142C16.6779 9.29396 16.6443 9.34454 16.6215 9.40022C16.5987 9.4559 16.5872 9.51556 16.5878 9.57572C16.5883 9.63587 16.6008 9.69532 16.6245 9.7506C16.6483 9.80587 16.6828 9.85587 16.726 9.89766L19.0462 12.2182H14.2501V9.49987H15.6093C15.7294 9.49987 15.8447 9.45214 15.9296 9.36717C16.0146 9.28221 16.0623 9.16697 16.0623 9.04681C16.0623 8.92665 16.0146 8.81141 15.9296 8.72645C15.8447 8.64148 15.7294 8.59375 15.6093 8.59375H13.797C13.6768 8.59375 13.5616 8.64148 13.4766 8.72645C13.3917 8.81141 13.3439 8.92665 13.3439 9.04681V12.6713C13.3439 12.7915 13.3917 12.9067 13.4766 12.9917C13.5616 13.0766 13.6768 13.1244 13.797 13.1244H20.1399C20.2295 13.1243 20.317 13.0978 20.3915 13.048C20.466 12.9982 20.5241 12.9274 20.5583 12.8447C20.5926 12.7619 20.6016 12.6708 20.5841 12.5829C20.5667 12.4951 20.5235 12.4143 20.4602 12.351L17.3667 9.25703Z" fill="black"/>
</g>
<defs>
<clipPath id="clip0_4201_2057">
<rect width="28.9959" height="28.9959" fill="white" transform="translate(0.205078 0.891602)"/>
</clipPath>
</defs>
</svg>
