<svg width="30" height="30" viewBox="0 0 30 30" fill="none" xmlns="http://www.w3.org/2000/svg">
<path d="M27.3484 13.7073C24.0429 12.8374 22.0131 12.9534 21.5492 12.7794C21.3172 12.7214 21.5492 12.7794 18.0117 10.6337C17.6638 10.4017 17.1998 10.2858 16.7939 10.2278C12.7924 9.76384 8.09511 9.82183 4.90556 12.3735C4.73158 12.4895 4.6156 12.6054 4.44162 12.6054L2.58588 13.1854C2.23793 13.3013 2.00596 13.5333 1.83199 13.8233C1.19408 14.9251 0.962111 16.3169 1.31006 17.5927C1.42605 18.0567 1.83199 18.4626 2.29592 18.5786L4.03568 18.9845C4.38363 20.0864 5.36949 20.8403 6.52933 20.8403C7.68916 20.8403 8.61703 20.0864 9.02298 19.0425H21.9552C22.3031 20.0864 23.289 20.8403 24.4488 20.8403C25.6086 20.8403 26.5365 20.0864 26.9425 19.0425H27.5224C28.3343 19.0425 28.9722 18.4046 28.9722 17.5927V15.795C28.9142 14.8091 28.2763 13.9393 27.3484 13.7073ZM17.3158 11.6196L20.1574 13.3593L19.7515 13.5913C19.6935 13.6493 19.6355 13.6493 19.5195 13.6493H14.8222L14.1263 11.1556C14.8802 11.2136 15.692 11.2716 16.5619 11.3296C16.8519 11.3876 17.1418 11.4456 17.3158 11.6196ZM12.9664 11.1556L13.6623 13.6493H10.2988C10.1248 13.6493 9.95085 13.5913 9.83486 13.4173L8.44306 11.7356C9.77687 11.3876 11.2847 11.1556 12.9664 11.1556ZM6.47134 19.6804C5.65945 19.6804 5.02154 19.0425 5.02154 18.2306C5.02154 17.4188 5.65945 16.7809 6.47134 16.7809C7.28322 16.7809 7.92113 17.4188 7.92113 18.2306C7.92113 18.9845 7.28322 19.6804 6.47134 19.6804ZM24.4488 19.6804C23.6369 19.6804 22.999 19.0425 22.999 18.2306C22.999 17.4188 23.6369 16.7809 24.4488 16.7809C25.2607 16.7809 25.8986 17.4188 25.8986 18.2306C25.8986 18.9845 25.2027 19.6804 24.4488 19.6804ZM27.4644 17.8827H27.0584C26.8845 16.6069 25.7826 15.563 24.4488 15.563C23.115 15.563 22.0131 16.5489 21.8392 17.8827H9.08097C8.90699 16.6069 7.80515 15.563 6.47134 15.563C5.19552 15.563 4.09367 16.4909 3.91969 17.7087L2.52789 17.4188C2.4699 17.4188 2.41191 17.3608 2.41191 17.3028C2.29592 17.0128 2.23793 16.7229 2.23793 16.4909H3.1658C3.51375 16.4909 3.74572 16.2589 3.74572 15.911C3.74572 15.563 3.51375 15.3311 3.1658 15.3311H2.35392C2.41191 14.9831 2.58588 14.6931 2.75986 14.4032C2.75986 14.3452 2.81785 14.3452 2.87584 14.3452L4.73158 13.7653C5.02154 13.6493 5.3115 13.5333 5.60146 13.3013C6.12338 12.8954 6.7033 12.5474 7.34121 12.2575L8.96499 14.2292C9.31294 14.6352 9.77687 14.8671 10.2988 14.8671H19.5195C19.8095 14.8671 20.0994 14.8091 20.3894 14.6352L21.4332 13.9972C22.0131 14.1132 24.0429 14.0552 27.0584 14.8671C27.4644 14.9831 27.7543 15.3311 27.7543 15.737L27.1744 15.621C26.8845 15.563 26.5365 15.795 26.4785 16.085C26.4205 16.3749 26.6525 16.7229 26.9425 16.7809L27.7543 16.8968V17.5927C27.7543 17.7667 27.6384 17.8827 27.4644 17.8827Z" fill="black"/>
<path d="M16.504 15.332H15.8081C15.4601 15.332 15.2281 15.564 15.2281 15.9119C15.2281 16.2599 15.4601 16.4919 15.8081 16.4919H16.504C16.8519 16.4919 17.0839 16.2599 17.0839 15.9119C17.0839 15.564 16.7939 15.332 16.504 15.332ZM11.5746 15.332H10.8787C10.5308 15.332 10.2988 15.564 10.2988 15.9119C10.2988 16.2599 10.5308 16.4919 10.8787 16.4919H11.5746C11.9226 16.4919 12.1546 16.2599 12.1546 15.9119C12.1546 15.564 11.9226 15.332 11.5746 15.332Z" fill="black"/>
</svg>
