<svg width="90" height="91" viewBox="0 0 90 91" fill="none" xmlns="http://www.w3.org/2000/svg">
<g clip-path="url(#clip0_4101_707)">
<path d="M36.9953 81.6162L45 77.5365V50.9561L23.1608 62.0904V88.2923C23.6391 88.2923 24.1196 88.1797 24.5598 87.9543L31.3945 84.4709M23.1602 62.0902V88.2929C22.6807 88.2929 22.2013 88.1802 21.7598 87.9548L3.0883 78.4359C2.00514 77.8842 1.31836 76.7414 1.31836 75.4913V52.951C1.31836 52.3206 1.49291 51.7179 1.8051 51.2034L23.1602 62.0902Z" stroke="#FF0000" stroke-width="2.63672" stroke-miterlimit="10" stroke-linecap="round" stroke-linejoin="round"/>
<path d="M45.0002 50.9559L23.161 62.0903L1.80444 51.2025C2.09993 50.7177 2.51882 50.3096 3.02911 50.0375L23.1612 39.2178L45.0002 50.9559ZM45.0002 50.9559V77.5363L65.4404 87.9542C65.8806 88.1795 66.3612 88.2922 66.8395 88.2922V62.0903L45.0002 50.9559ZM66.84 62.0901V88.2927C67.3195 88.2927 67.7989 88.1801 68.2404 87.9547L86.9119 78.436C87.9951 77.8842 88.6819 76.7414 88.6819 75.4913V52.9509C88.6819 52.3205 88.5073 51.7178 88.1953 51.2032L66.84 62.0901Z" stroke="#FF0000" stroke-width="2.63672" stroke-miterlimit="10" stroke-linecap="round" stroke-linejoin="round"/>
<path d="M55.5644 45.2782L44.9999 50.9564M44.9999 50.9564L66.8392 62.0908L88.1957 51.203C87.9002 50.7182 87.4813 50.3101 86.971 50.038L78.1152 45.2785M44.9999 50.9564V24.4544M44.9999 50.9564L23.1607 39.2183L23.1602 15.3161C23.1602 14.6857 23.3347 14.083 23.6467 13.5686M44.9999 24.4544L23.6467 13.5686M44.9999 24.4544L66.3521 13.5686M23.6467 13.5686C23.9424 13.083 24.3602 12.6755 24.8703 12.4023L43.539 2.37313C43.5441 2.37102 43.5483 2.36786 43.5534 2.36575C44.0008 2.12694 44.5004 2.00263 45.0075 2.00392C45.5147 2.0052 46.0136 2.13205 46.4598 2.37313L65.1285 12.4023C65.6386 12.6757 66.0575 13.083 66.3521 13.5686M66.3521 13.5686C66.671 14.0957 66.8392 14.7001 66.8386 15.3161L66.8388 20.1318" stroke="#FF0000" stroke-width="2.63672" stroke-miterlimit="10" stroke-linecap="round" stroke-linejoin="round"/>
<path d="M76.2882 30.5847C73.9481 28.025 70.5813 26.4194 66.8396 26.4194C59.7711 26.4194 54.041 32.1495 54.041 39.2181C54.041 46.2866 59.7711 52.0167 66.8396 52.0167C73.9082 52.0167 79.6383 46.2866 79.6383 39.2181C79.6383 38.1321 79.5031 37.0778 79.2484 36.0709" stroke="#FF0000" stroke-width="2.63672" stroke-miterlimit="10" stroke-linecap="round" stroke-linejoin="round"/>
<path d="M60.8359 39.757L65.0999 43.7079L72.6161 35.8062" stroke="#FF0000" stroke-width="2.63672" stroke-miterlimit="10" stroke-linecap="round" stroke-linejoin="round"/>
</g>
<defs>
<clipPath id="clip0_4101_707">
<rect width="90" height="90" fill="white" transform="translate(0 0.148438)"/>
</clipPath>
</defs>
</svg>
