<svg width="90" height="91" viewBox="0 0 90 91" fill="none" xmlns="http://www.w3.org/2000/svg">
<g clip-path="url(#clip0_4029_1374)">
<path d="M10.0283 12.9056L8.37433 16.2571C8.31707 16.373 8.2325 16.4733 8.1279 16.5493C8.0233 16.6253 7.9018 16.6747 7.77386 16.6934L4.07542 17.2307C3.42116 17.3258 3.15995 18.1297 3.63333 18.5911L6.3096 21.1997C6.40218 21.29 6.47143 21.4014 6.51139 21.5244C6.55135 21.6473 6.56083 21.7782 6.539 21.9056L5.90724 25.5891C5.79544 26.2407 6.47941 26.7375 7.06458 26.4299L10.3726 24.6907C10.4871 24.6305 10.6145 24.5991 10.7438 24.5991C10.8731 24.5991 11.0005 24.6305 11.1149 24.6907L14.423 26.4299C15.0081 26.7375 15.6919 26.2406 15.5803 25.5891L14.9485 21.9056C14.9267 21.7782 14.9362 21.6473 14.9762 21.5244C15.0161 21.4014 15.0854 21.29 15.1779 21.1997L17.8542 18.5911C18.3276 18.1297 18.0664 17.3256 17.4121 17.2307L13.7137 16.6934C13.5857 16.6748 13.4642 16.6253 13.3596 16.5493C13.255 16.4733 13.1704 16.373 13.1132 16.2571L11.4593 12.9056C11.1661 12.3129 10.3208 12.3129 10.0283 12.9056ZM79.9709 12.9056L81.6248 16.2571C81.6821 16.373 81.7667 16.4733 81.8713 16.5493C81.9759 16.6253 82.0974 16.6747 82.2253 16.6934L85.9237 17.2307C86.578 17.3258 86.8392 18.1297 86.3658 18.5911L83.6896 21.1997C83.597 21.29 83.5277 21.4014 83.4878 21.5244C83.4478 21.6473 83.4383 21.7782 83.4602 21.9056L84.0919 25.5891C84.2037 26.2407 83.5198 26.7375 82.9346 26.4299L79.6266 24.6907C79.5121 24.6305 79.3847 24.5991 79.2554 24.5991C79.1261 24.5991 78.9987 24.6305 78.8842 24.6907L75.5762 26.4299C74.991 26.7375 74.3072 26.2406 74.4189 25.5891L75.0506 21.9056C75.0724 21.7782 75.063 21.6473 75.023 21.5244C74.9831 21.4014 74.9138 21.29 74.8212 21.1997L72.145 18.5911C71.6716 18.1297 71.9328 17.3256 72.587 17.2307L76.2855 16.6934C76.4134 16.6748 76.5349 16.6253 76.6395 16.5493C76.7442 16.4733 76.8287 16.373 76.886 16.2571L78.5399 12.9056C78.8331 12.3129 79.6784 12.3129 79.9709 12.9056ZM46.2592 6.12575L49.1721 12.028C49.2729 12.2322 49.4219 12.4088 49.6061 12.5427C49.7904 12.6765 50.0044 12.7636 50.2298 12.7963L56.7432 13.7427C57.8952 13.91 58.3554 15.326 57.5217 16.1386L52.8085 20.7328C52.6454 20.8918 52.5234 21.088 52.4531 21.3046C52.3827 21.5212 52.366 21.7517 52.4045 21.9761L53.5172 28.4631C53.7141 29.6106 52.5097 30.4857 51.4791 29.9439L45.6533 26.8811C45.4517 26.7751 45.2274 26.7197 44.9997 26.7197C44.7719 26.7197 44.5476 26.7751 44.346 26.8811L38.5203 29.9439C37.4899 30.4857 36.2854 29.6106 36.4821 28.4631L37.5948 21.9761C37.6333 21.7517 37.6166 21.5212 37.5463 21.3046C37.4759 21.088 37.3539 20.8918 37.1909 20.7328L32.4776 16.1386C31.6439 15.326 32.1039 13.91 33.2562 13.7427L39.7696 12.7963C39.9949 12.7636 40.209 12.6765 40.3932 12.5427C40.5775 12.4088 40.7264 12.2322 40.8272 12.028L43.7401 6.12575C44.2552 5.08178 45.744 5.08178 46.2592 6.12575Z" stroke="#FF0000" stroke-width="2.63672" stroke-miterlimit="10" stroke-linecap="round" stroke-linejoin="round"/>
<path d="M54.3803 19.7017C66.782 23.668 75.7615 35.2889 75.7615 49.0069C75.7615 54.8022 74.1589 60.2231 71.3727 64.8507M18.603 64.8114C15.8315 60.1923 14.238 54.7857 14.238 49.0069C14.238 35.2892 23.2169 23.6687 35.6183 19.7018" stroke="#FF0000" stroke-width="2.63672" stroke-miterlimit="10" stroke-linecap="round" stroke-linejoin="round"/>
<path d="M53.1184 24.8386C63.2148 28.2287 70.4881 37.7683 70.4881 49.0065C70.4881 54.984 68.4306 60.4808 64.9849 64.8274M24.5626 33.7732C27.6331 29.6604 31.9161 26.5055 36.8817 24.8384M25.0017 64.8112C21.5639 60.4671 19.5115 54.9766 19.5115 49.0065C19.5115 45.4981 20.2205 42.1551 21.5028 39.1132M79.042 77.0437H87.8071C88.5043 77.0437 88.92 76.2612 88.5334 75.6773L84.7411 69.9495C84.1674 69.0818 83.8615 68.0645 83.8615 67.0243C83.8615 65.9841 84.1674 64.9668 84.7411 64.0991L88.5334 58.3711C88.9202 57.787 88.5043 57.0048 87.8071 57.0048H74.8434M40.8753 79.6306L44.4021 70.3705C44.4742 70.1943 44.7237 70.194 44.7961 70.3701L48.291 79.6308M41.9751 77.3242H47.2087M35.7472 70.2808H31.8257V79.5877H35.7472M35.458 74.9343H31.8257M20.6938 70.2379L23.6939 74.8327M23.6939 74.8327L26.6695 70.2618M23.6939 74.8327L23.6823 79.6306M54.5558 75.1477L58.5012 79.6306M53.4231 70.2379V79.6306M53.6546 70.2379H55.9221C57.3193 70.2379 58.5014 71.3308 58.5014 72.679C58.5014 74.0271 57.3193 75.1201 55.9221 75.1201C55.4117 75.1201 54.3079 75.1259 53.7623 75.129M68.9957 71.2077C68.9957 71.2077 67.3122 69.7925 65.3268 70.3907C63.5039 70.9398 63.2489 73.0418 64.5678 73.9016C64.5678 73.9016 65.8619 74.4788 67.2973 75.0083C70.7525 76.2827 69.2641 79.6254 66.4826 79.6254C65.0897 79.6254 63.9207 79.0154 63.213 78.2346M10.7896 77.0437H2.1925C1.49535 77.0437 1.07963 76.2612 1.46617 75.6773L5.25848 69.9495C5.8322 69.0818 6.13809 68.0645 6.13809 67.0243C6.13809 65.9841 5.8322 64.9668 5.25848 64.0991L1.46617 58.3711C1.07945 57.787 1.49535 57.0048 2.1925 57.0048H15.1495" stroke="#FF0000" stroke-width="2.63672" stroke-miterlimit="10" stroke-linecap="round" stroke-linejoin="round"/>
<path d="M67.2153 84.9538H12.9197C11.9488 84.9538 11.1619 84.1668 11.1619 83.196V64.9147M11.1619 64.9147H78.8376V83.196C78.8376 84.1668 78.0507 84.9538 77.0798 84.9538H73.3677M11.1619 64.9147L15.417 57.8538M78.8376 64.913L74.5637 57.8209M34.7816 39.2946H38.9332V58.7184M55.2179 53.3884C55.2179 56.4148 52.7645 58.8682 49.7381 58.8682C46.7117 58.8682 44.2583 56.4148 44.2583 53.3884V44.6248C44.2583 41.5984 46.7117 39.145 49.7381 39.145C52.7645 39.145 55.2179 41.5984 55.2179 44.6248V53.3884Z" stroke="#FF0000" stroke-width="2.63672" stroke-miterlimit="10" stroke-linecap="round" stroke-linejoin="round"/>
</g>
<defs>
<clipPath id="clip0_4029_1374">
<rect width="90" height="90" fill="white" transform="translate(-0.000244141 0.148438)"/>
</clipPath>
</defs>
</svg>
