<svg width="90" height="91" viewBox="0 0 90 91" fill="none" xmlns="http://www.w3.org/2000/svg">
<path d="M59.7076 77.1038C59.9572 77.6311 59.7322 78.2587 59.2049 78.5083C54.7471 80.6177 49.9676 81.6864 45 81.6864C40.9447 81.6864 36.9826 80.964 33.2244 79.5401C32.6795 79.3345 32.4053 78.7245 32.6109 78.1796C32.8166 77.6347 33.4266 77.3605 33.9715 77.5661C37.4906 78.8985 41.2014 79.5753 45 79.5753C49.6529 79.5753 54.1301 78.5733 58.3031 76.5993C58.8287 76.3532 59.458 76.5782 59.7076 77.1038ZM13.0465 53.4489C13.0887 53.4489 13.1326 53.4472 13.1766 53.4419C13.7549 53.3716 14.1662 52.8442 14.0959 52.2659C13.9412 51.0056 13.8639 49.7188 13.8639 48.4409C13.8639 38.3265 18.8068 28.8044 27.0861 22.9702C27.5625 22.6345 27.6768 21.9771 27.341 21.5007C27.0053 21.0243 26.3479 20.9101 25.8715 21.2458C17.0332 27.4755 11.7562 37.6409 11.7562 48.4409C11.7562 49.805 11.8406 51.1778 12.0041 52.5226C12.0656 53.0569 12.5209 53.4489 13.0465 53.4489ZM62.9156 22.9702C71.1949 28.8044 76.1379 38.3265 76.1379 48.4409C76.1379 49.4745 76.0869 50.5169 75.985 51.5399C75.9269 52.12 76.3506 52.6351 76.9307 52.6931C77.0685 52.7069 77.2077 52.6934 77.3404 52.6534C77.473 52.6133 77.5964 52.5475 77.7036 52.4596C77.8107 52.3717 77.8994 52.2636 77.9647 52.1414C78.0299 52.0192 78.0704 51.8853 78.0838 51.7474C78.191 50.6558 78.2455 49.5448 78.2455 48.4409C78.2455 37.6409 72.9686 27.4755 64.1303 21.2458C64.0171 21.166 63.8892 21.1093 63.7541 21.0789C63.619 21.0485 63.4792 21.045 63.3427 21.0687C63.2062 21.0924 63.0757 21.1427 62.9587 21.2168C62.8417 21.291 62.7405 21.3874 62.6607 21.5007C62.3268 21.9753 62.441 22.6345 62.9156 22.9702ZM45 66.5376C35.0209 66.5376 26.9016 58.4183 26.9016 48.4392C26.9016 38.4601 35.0209 30.3425 45 30.3425C54.9791 30.3425 63.0984 38.4618 63.0984 48.4409C63.0984 58.42 54.9791 66.5376 45 66.5376ZM46.0547 64.2735C48.0621 63.6864 49.8516 61.461 51.0803 58.297C49.4912 57.97 47.7949 57.7696 46.0547 57.7134V64.2735ZM51.75 56.2878C52.3266 54.2452 52.6887 51.9337 52.7713 49.4938H46.0547V55.6022C48.0252 55.6655 49.9482 55.8993 51.75 56.2878ZM52.7713 47.3862C52.6887 44.9464 52.3266 42.6349 51.75 40.5923C49.9482 40.9808 48.0252 41.2163 46.0547 41.2778V47.3862H52.7713ZM51.0803 38.5813C49.8516 35.419 48.0621 33.1919 46.0547 32.6048V39.1649C47.7967 39.1087 49.4912 38.9101 51.0803 38.5813ZM43.9453 32.6065C41.9379 33.1937 40.1484 35.419 38.9197 38.5831C40.5088 38.9101 42.2051 39.1105 43.9453 39.1667V32.6065ZM38.25 40.5923C37.6734 42.6349 37.3113 44.9464 37.2287 47.3862H43.9453V41.2778C41.9748 41.2146 40.0518 40.9808 38.25 40.5923ZM37.2287 49.4956C37.3113 51.9355 37.6734 54.247 38.25 56.2896C40.0518 55.9011 41.9748 55.6655 43.9453 55.604V49.4956H37.2287ZM38.9197 58.2987C40.1484 61.461 41.9379 63.6882 43.9453 64.2753V57.7151C42.2033 57.7714 40.5088 57.97 38.9197 58.2987ZM50.6215 63.4087C52.6661 62.6367 54.5313 61.4546 56.1023 59.9352C55.1971 59.5011 54.2021 59.1267 53.1404 58.812C52.8539 59.5696 52.5357 60.2903 52.1842 60.9671C51.7061 61.8899 51.1822 62.7038 50.6215 63.4087ZM57.5684 58.3128C59.5055 55.8519 60.7359 52.8091 60.9539 49.4938H54.8807C54.8016 52.0761 54.4307 54.5616 53.7978 56.8099C55.1654 57.2194 56.4346 57.7222 57.5684 58.3128ZM60.9539 47.3862C60.7377 44.071 59.5072 41.0282 57.5684 38.5673C56.4346 39.1579 55.1654 39.6606 53.7978 40.0685C54.4307 42.3167 54.8016 44.8022 54.8807 47.3845H60.9539V47.3862ZM56.1006 36.9448C54.5298 35.4256 52.6645 34.2441 50.6197 33.4731C51.1805 34.1763 51.7043 34.9919 52.1824 35.913C52.534 36.5897 52.8521 37.3122 53.1387 38.0681C54.2004 37.7534 55.1953 37.379 56.1006 36.9448ZM39.3785 33.4731C37.3339 34.2452 35.4687 35.4272 33.8977 36.9466C34.8029 37.3808 35.7979 37.7552 36.8596 38.0698C37.1461 37.3122 37.4643 36.5915 37.8158 35.9147C38.2939 34.9901 38.8178 34.1763 39.3785 33.4731ZM32.4316 38.5673C30.4945 41.0282 29.2641 44.071 29.0461 47.3862H35.1193C35.1984 44.804 35.5693 42.3185 36.2021 40.0702C34.8346 39.6606 33.5654 39.1579 32.4316 38.5673ZM29.0479 49.4956C29.2641 52.8108 30.4945 55.8519 32.4334 58.3145C33.5672 57.7239 34.8363 57.2212 36.2039 56.8134C35.5711 54.5651 35.2002 52.0796 35.1211 49.4974H29.0479V49.4956ZM33.8994 59.9352C35.4706 61.4544 37.3357 62.6364 39.3803 63.4087C38.8195 62.7056 38.2957 61.8899 37.8176 60.9688C37.466 60.2921 37.1479 59.5696 36.8613 58.8138C35.7996 59.1267 34.8047 59.5011 33.8994 59.9352ZM87.3633 77.494V83.1665C87.3633 83.7483 86.8904 84.2212 86.3086 84.2212H63.6486C63.0668 84.2212 62.5939 83.7483 62.5939 83.1665V77.494C62.5939 73.4933 65.1234 69.4644 70.6658 68.095C68.9555 66.7907 67.848 64.7341 67.848 62.4226C67.848 58.4903 71.0473 55.2911 74.9795 55.2911C78.9117 55.2911 82.1109 58.4903 82.1109 62.4226C82.1109 64.7341 81.0035 66.7925 79.2932 68.095C84.8338 69.4626 87.3633 73.4933 87.3633 77.494ZM69.9574 62.4208C69.9574 65.1894 72.2092 67.4429 74.9795 67.4429C77.748 67.4429 80.0016 65.1911 80.0016 62.4208C80.0016 59.6505 77.7498 57.3987 74.9795 57.3987C72.2092 57.4005 69.9574 59.6522 69.9574 62.4208ZM85.2539 77.494C85.2539 72.769 81.2215 69.7157 74.9795 69.7157C68.7375 69.7157 64.7051 72.769 64.7051 77.494V82.1118H68.0854V78.445C68.0854 77.8632 68.5582 77.3903 69.14 77.3903C69.7219 77.3903 70.1947 77.8632 70.1947 78.445V82.1118H79.7678V78.445C79.7678 77.8632 80.2406 77.3903 80.8225 77.3903C81.4043 77.3903 81.8772 77.8632 81.8772 78.445V82.1118H85.2539V77.494ZM29.6016 63.3876V76.1212C29.6016 76.5044 29.3941 76.856 29.0602 77.0423L16.6324 83.9663C16.4756 84.0543 16.2987 84.1004 16.1189 84.1001C15.9391 84.0998 15.7624 84.0531 15.6059 83.9646V83.9663L3.17812 77.0423C3.01415 76.9507 2.87754 76.8171 2.78237 76.6552C2.68721 76.4933 2.63693 76.309 2.63672 76.1212V63.3876C2.63672 63.0132 2.83535 62.6669 3.15703 62.4788L3.17812 62.4683V62.4665L15.6059 55.5425C15.7628 55.4552 15.9395 55.4093 16.1191 55.4093C16.2988 55.4093 16.4754 55.4552 16.6324 55.5425L29.0602 62.4665V62.4683L29.0813 62.4788C29.2394 62.5721 29.3706 62.7049 29.4618 62.8643C29.5531 63.0236 29.6012 63.204 29.6016 63.3876ZM14.1416 58.7733L23.9396 64.7464L26.3777 63.3876L16.1191 57.6729L14.1416 58.7733ZM16.1191 69.104L19.0195 67.4886L9.12129 61.57L5.85879 63.3876L16.1191 69.104ZM21.8232 65.9259L12.0252 59.9528L11.25 60.3853L21.1482 66.3038L21.8232 65.9259ZM22.2328 71.6212L22.8621 71.2573V67.7628L22.2328 68.1126V71.6212ZM4.74609 75.5024L15.0645 81.2505V70.9304L4.74609 65.1823V75.5024ZM27.4922 65.1823L24.9715 66.5868V71.8655C24.9715 72.2417 24.7711 72.5897 24.4441 72.7778L21.7055 74.3616C21.542 74.4565 21.3592 74.504 21.1781 74.504C21.0396 74.5043 20.9023 74.4771 20.7742 74.4242C20.6461 74.3713 20.5298 74.2936 20.4318 74.1957C20.3338 74.0977 20.2561 73.9813 20.2032 73.8532C20.1503 73.7252 20.1232 73.5879 20.1234 73.4493V69.2886L17.1738 70.9321V81.2522L27.4922 75.5042V65.1823ZM30.5262 24.6032V8.20107C30.5262 7.03037 31.4789 6.07764 32.6496 6.07764H47.4838C48.6545 6.07764 49.6072 7.03037 49.6072 8.20107V10.0925H54.3393C54.6961 10.0925 55.0301 10.2735 55.2234 10.5741L59.2998 16.8636C59.4105 17.0341 59.4703 17.2345 59.4703 17.4366V24.6015C59.4703 25.1833 58.9975 25.6562 58.4156 25.6562H56.5822C56.141 26.9464 54.9211 27.8763 53.485 27.8763C52.0488 27.8763 50.8271 26.9446 50.3877 25.6562H39.5648C39.1236 26.9464 37.9037 27.8763 36.4676 27.8763C35.0314 27.8763 33.8098 26.9446 33.3703 25.6562H31.5826C31.4441 25.6566 31.3068 25.6296 31.1787 25.5769C31.0505 25.5242 30.9341 25.4467 30.8359 25.3489C30.7378 25.2511 30.6599 25.1349 30.6068 25.0069C30.5536 24.879 30.5262 24.7418 30.5262 24.6032ZM37.633 24.6032C37.633 23.9599 37.1092 23.4378 36.4676 23.4378C35.8242 23.4378 35.3021 23.9616 35.3021 24.6032C35.3021 25.2466 35.826 25.7687 36.4676 25.7687C37.1092 25.7687 37.633 25.2466 37.633 24.6032ZM47.4996 23.5485V20.3071H32.6355V23.5485H33.3686C33.8098 22.2583 35.0297 21.3284 36.4658 21.3284C37.902 21.3284 39.1236 22.2601 39.5631 23.5485H47.4996ZM54.6539 24.6032C54.6539 23.9599 54.1301 23.4378 53.4885 23.4378C52.8451 23.4378 52.323 23.9616 52.323 24.6032C52.323 25.2466 52.8469 25.7687 53.4885 25.7687C54.1301 25.7687 54.6539 25.2466 54.6539 24.6032ZM55.7051 15.1884H53.5975V16.3837H56.4785L55.7051 15.1884ZM49.609 12.2019V23.5468H50.3877C50.8289 22.2565 52.0488 21.3267 53.485 21.3267C54.9211 21.3267 56.1428 22.2583 56.5822 23.5468H57.3609V18.4913H52.5393C51.9574 18.4913 51.4846 18.0185 51.4846 17.4366V14.1319C51.4846 13.5501 51.9574 13.0772 52.5393 13.0772H54.334L53.7662 12.2019H49.609ZM32.6355 8.20107V18.1978H47.4996V8.20107C47.4996 8.1958 47.4908 8.18701 47.4855 8.18701H32.6514C32.6443 8.18701 32.6355 8.1958 32.6355 8.20107Z" fill="#FF0000"/>
</svg>
