<svg width="90" height="91" viewBox="0 0 90 91" fill="none" xmlns="http://www.w3.org/2000/svg">
<path d="M23.9063 35.5269C23.5333 35.5269 23.1756 35.3787 22.9119 35.115C22.6482 34.8512 22.5 34.4936 22.5 34.1206V29.0272C22.5 28.5856 22.7053 28.1722 23.0569 27.9078C24.4913 26.8222 25.3125 25.1909 25.3125 23.4331V19.2144C25.3125 16.1122 22.7897 13.5894 19.6875 13.5894C16.5853 13.5894 14.0625 16.1122 14.0625 19.2144V23.4331C14.0625 25.1909 14.8838 26.8222 16.3181 27.9078C16.4915 28.0389 16.6321 28.2086 16.7287 28.4033C16.8254 28.598 16.8754 28.8126 16.875 29.03V34.1234C16.8748 34.3081 16.8383 34.4909 16.7674 34.6615C16.6966 34.832 16.5928 34.9869 16.4621 35.1174C16.3314 35.2478 16.1763 35.3513 16.0056 35.4218C15.8349 35.4923 15.652 35.5284 15.4674 35.5283C15.2827 35.5281 15.0999 35.4915 14.9293 35.4207C14.7588 35.3498 14.6038 35.2461 14.4734 35.1154C14.3429 34.9847 14.2395 34.8295 14.169 34.6589C14.0985 34.4882 14.0623 34.3053 14.0625 34.1206V29.6909C13.1768 28.9069 12.468 27.9434 11.9831 26.8645C11.4982 25.7856 11.2483 24.616 11.25 23.4331V19.2144C11.25 14.5625 15.0356 10.7769 19.6875 10.7769C24.3394 10.7769 28.125 14.5625 28.125 19.2144V23.4331C28.125 25.8406 27.1097 28.0822 25.3125 29.6909V34.1206C25.3125 34.4936 25.1644 34.8512 24.9006 35.115C24.6369 35.3787 24.2792 35.5269 23.9063 35.5269Z" fill="#FF0000"/>
<path d="M21.1022 31.73C20.756 31.7264 20.4233 31.5952 20.1678 31.3616C19.9123 31.128 19.752 30.8084 19.7175 30.4639C19.683 30.1194 19.7768 29.7743 19.9809 29.4947C20.1851 29.2151 20.4851 29.0205 20.8237 28.9484C22.0903 28.6818 23.2269 27.9888 24.0439 26.9849C24.8609 25.9811 25.3087 24.7274 25.3125 23.4331C25.3125 23.0601 25.4607 22.7025 25.7244 22.4387C25.9881 22.175 26.3458 22.0269 26.7188 22.0269C27.0917 22.0269 27.4494 22.175 27.7131 22.4387C27.9768 22.7025 28.125 23.0601 28.125 23.4331C28.1195 25.3746 27.447 27.2553 26.2202 28.7601C24.9935 30.2649 23.2868 31.3025 21.3862 31.699C21.2929 31.7191 21.1977 31.7294 21.1022 31.73ZM29.1769 37.7319C28.9862 37.7322 28.7975 37.6929 28.6228 37.6165L23.3522 35.3525C23.0147 35.2021 22.75 34.9249 22.6152 34.5808C22.4805 34.2368 22.4866 33.8535 22.6322 33.5139C22.7778 33.1743 23.0512 32.9057 23.3933 32.766C23.7354 32.6264 24.1187 32.6271 24.4603 32.7678L29.7309 35.0319C30.0294 35.159 30.2747 35.3854 30.4253 35.6727C30.5759 35.96 30.6226 36.2905 30.5574 36.6083C30.4921 36.9261 30.3191 37.2115 30.0675 37.4163C29.8159 37.621 29.5013 37.7325 29.1769 37.7319ZM11.25 54.7559C11.0491 54.7564 10.8504 54.7132 10.6678 54.6294L5.28469 52.1825C4.5485 51.8454 3.92437 51.3043 3.48622 50.6234C3.04806 49.9425 2.81426 49.1503 2.8125 48.3406V44.4425C2.8125 40.4994 5.14688 36.9556 8.75813 35.4144L14.9091 32.7453C15.0793 32.666 15.2637 32.6215 15.4514 32.6146C15.6391 32.6077 15.8263 32.6385 16.0019 32.7051C16.1775 32.7718 16.338 32.8729 16.4738 33.0025C16.6097 33.1322 16.7183 33.2878 16.793 33.4601C16.8678 33.6323 16.9073 33.8179 16.9092 34.0057C16.9111 34.1935 16.8754 34.3798 16.8041 34.5535C16.7329 34.7273 16.6275 34.885 16.4943 35.0174C16.3611 35.1498 16.2027 35.2542 16.0284 35.3244L9.87187 37.9962C8.60979 38.5358 7.53425 39.4346 6.77912 40.5808C6.024 41.7269 5.62264 43.0699 5.625 44.4425V48.3406C5.625 48.889 5.94844 49.3953 6.44906 49.6231L11.8322 52.07C12.1244 52.2031 12.3622 52.4322 12.5061 52.7192C12.6501 53.0062 12.6915 53.3338 12.6235 53.6476C12.5555 53.9613 12.3821 54.2424 12.1323 54.444C11.8824 54.6457 11.5711 54.7557 11.25 54.7559ZM25.1409 21.7737C22.3154 21.7651 19.5798 20.7794 17.3981 18.9837C17.1084 18.7499 16.9232 18.4108 16.8832 18.0407C16.8431 17.6706 16.9514 17.2997 17.1844 17.0094C17.4186 16.7192 17.7585 16.5341 18.1293 16.4945C18.5001 16.4549 18.8714 16.5643 19.1616 16.7984C20.9672 18.2525 23.1103 19.0372 25.3069 18.9612C25.2397 17.5154 24.6185 16.1509 23.5723 15.1507C22.526 14.1505 21.1349 13.5914 19.6875 13.5894C16.5853 13.5894 14.0625 16.1122 14.0625 19.2144V20.255C14.0625 20.6279 13.9143 20.9856 13.6506 21.2493C13.3869 21.5131 13.0292 21.6612 12.6562 21.6612C12.2833 21.6612 11.9256 21.5131 11.6619 21.2493C11.3982 20.9856 11.25 20.6279 11.25 20.255V19.2144C11.25 14.5625 15.0356 10.7769 19.6875 10.7769C24.3394 10.7769 28.125 14.5625 28.125 19.2144V20.1987C28.1252 20.5333 28.0061 20.857 27.7891 21.1117C27.572 21.3663 27.2713 21.5352 26.9409 21.5881C26.3469 21.6982 25.745 21.7603 25.1409 21.7737ZM74.5312 35.5269C74.1583 35.5269 73.8006 35.3787 73.5369 35.115C73.2732 34.8512 73.125 34.4936 73.125 34.1206V29.0272C73.125 28.5856 73.3303 28.1722 73.6819 27.9078C75.1162 26.8222 75.9375 25.1909 75.9375 23.4331V19.2144C75.9375 16.1122 73.4147 13.5894 70.3125 13.5894C67.2103 13.5894 64.6875 16.1122 64.6875 19.2144V23.4331C64.6875 25.1909 65.5088 26.8222 66.9431 27.9078C67.1165 28.0389 67.2571 28.2086 67.3537 28.4033C67.4504 28.598 67.5004 28.8126 67.5 29.03V34.1234C67.5 34.4964 67.3518 34.8541 67.0881 35.1178C66.8244 35.3815 66.4667 35.5297 66.0938 35.5297C65.7208 35.5297 65.3631 35.3815 65.0994 35.1178C64.8357 34.8541 64.6875 34.4964 64.6875 34.1234V29.6937C63.8018 28.9097 63.093 27.9462 62.6081 26.8673C62.1232 25.7885 61.8733 24.6188 61.875 23.4359V19.2172C61.875 14.5653 65.6606 10.7797 70.3125 10.7797C74.9644 10.7797 78.75 14.5653 78.75 19.2172V23.4359C78.75 25.8434 77.7347 28.085 75.9375 29.6937V34.1234C75.9368 34.4959 75.7883 34.8529 75.5246 35.116C75.261 35.3791 74.9037 35.5269 74.5312 35.5269Z" fill="#FF0000"/>
<path d="M71.7274 31.7299C71.3813 31.7263 71.0486 31.5951 70.7931 31.3615C70.5376 31.1279 70.3772 30.8083 70.3428 30.4638C70.3083 30.1193 70.4021 29.7742 70.6062 29.4946C70.8103 29.215 71.1104 29.0204 71.449 28.9483C72.7155 28.6817 73.8522 27.9887 74.6692 26.9848C75.4862 25.981 75.934 24.7273 75.9378 23.433C75.9378 23.06 76.0859 22.7024 76.3496 22.4386C76.6134 22.1749 76.971 22.0268 77.344 22.0268C77.717 22.0268 78.0747 22.1749 78.3384 22.4386C78.6021 22.7024 78.7503 23.06 78.7503 23.433C78.7448 25.3745 78.0723 27.2552 76.8455 28.76C75.6187 30.2648 73.9121 31.3024 72.0115 31.6989C71.9181 31.719 71.8229 31.7293 71.7274 31.7299ZM61.2368 37.5546C60.9107 37.5586 60.5933 37.4488 60.3393 37.2442C60.0853 37.0396 59.9105 36.7529 59.8449 36.4334C59.7793 36.1138 59.8271 35.7815 59.98 35.4933C60.1329 35.2052 60.3814 34.9794 60.6828 34.8546L65.5399 32.7677C65.8816 32.627 66.2649 32.6263 66.607 32.7659C66.9491 32.9056 67.2225 33.1742 67.3681 33.5138C67.5137 33.8534 67.5198 34.2367 67.385 34.5807C67.2503 34.9248 66.9856 35.202 66.6481 35.3524L61.7909 37.4393C61.6162 37.5158 61.4275 37.5551 61.2368 37.5546ZM78.7503 54.7558C78.4307 54.7528 78.1217 54.6412 77.874 54.4394C77.6262 54.2376 77.4544 53.9576 77.3867 53.6453C77.319 53.333 77.3595 53.007 77.5015 52.7207C77.6434 52.4345 77.8785 52.205 78.1681 52.0699L83.5512 49.623C83.7969 49.5105 84.0051 49.3299 84.1512 49.1025C84.2973 48.8752 84.375 48.6107 84.3753 48.3405V44.4424C84.3753 41.6299 82.7103 39.1014 80.1368 38.0018L73.9718 35.3243C73.6298 35.1754 73.3608 34.897 73.2237 34.5501C73.0866 34.2032 73.0927 33.8161 73.2406 33.4736C73.5499 32.7593 74.3656 32.433 75.0912 32.7452L81.2478 35.4171C83.0142 36.1726 84.5193 37.4313 85.5755 39.0361C86.6318 40.641 87.1924 42.5211 87.1878 44.4424V48.3405C87.1878 49.9886 86.2174 51.4961 84.7156 52.1824L79.3324 54.6293C79.1494 54.7119 78.9511 54.755 78.7503 54.7558ZM48.6846 17.5718C44.6853 17.5718 40.5228 16.1627 38.2278 14.0983C38.0905 13.975 37.979 13.8258 37.8994 13.6593C37.8199 13.4928 37.7739 13.3123 37.7641 13.128C37.7543 12.9438 37.7809 12.7594 37.8423 12.5854C37.9038 12.4115 37.9989 12.2513 38.1223 12.1141C38.2456 11.9769 38.3948 11.8653 38.5613 11.7858C38.7278 11.7062 38.9083 11.6602 39.0926 11.6504C39.2768 11.6406 39.4612 11.6672 39.6352 11.7287C39.8091 11.7901 39.9693 11.8853 40.1065 12.0086C42.8796 14.5005 49.5228 15.8027 53.3281 13.7608C53.4908 13.6735 53.6691 13.619 53.8528 13.6006C54.0366 13.5821 54.2221 13.6001 54.3989 13.6533C54.5757 13.7066 54.7403 13.7942 54.8833 13.9111C55.0262 14.028 55.1448 14.1719 55.2321 14.3346C55.3195 14.4973 55.3739 14.6756 55.3924 14.8593C55.4108 15.043 55.3929 15.2286 55.3396 15.4054C55.2863 15.5822 55.1987 15.7468 55.0819 15.8898C54.965 16.0327 54.8211 16.1513 54.6584 16.2386C52.9231 17.1639 50.8278 17.5718 48.6846 17.5718ZM44.9806 43.1205C40.3146 43.1205 37.8818 39.4811 37.2462 37.5546C37.1444 37.2054 37.1818 36.8303 37.3506 36.5082C37.5194 36.186 37.8064 35.9418 38.1515 35.8267C38.4966 35.7117 38.8728 35.7349 39.2011 35.8913C39.5295 36.0478 39.7844 36.3254 39.9124 36.6658C39.9715 36.8346 41.2174 40.3052 44.9806 40.3052C48.7746 40.3052 50.1106 36.7277 50.1696 36.5758C50.2938 36.2241 50.5526 35.9362 50.8892 35.7753C51.0558 35.6956 51.2365 35.6496 51.4209 35.6397C51.6053 35.6299 51.7899 35.6565 51.964 35.718C52.1382 35.7795 52.2985 35.8747 52.4358 35.9982C52.5732 36.1216 52.6849 36.2709 52.7645 36.4375C52.8442 36.6042 52.8903 36.7848 52.9001 36.9693C52.9099 37.1537 52.8833 37.3382 52.8218 37.5124C52.7403 37.743 50.7968 43.1205 44.9806 43.1205Z" fill="#FF0000"/>
<path d="M71.7188 54.3706C71.3458 54.3706 70.9881 54.2224 70.7244 53.9587C70.4607 53.695 70.3125 53.3373 70.3125 52.9644V52.1797C70.3146 50.147 69.6867 48.1637 68.5151 46.5026C67.3436 44.8415 65.6861 43.5843 63.7706 42.904L52.0397 38.7415C51.2159 38.4536 50.502 37.9167 49.9966 37.2053C49.4912 36.4939 49.2194 35.643 49.2188 34.7703V31.3109C49.2188 30.938 49.3669 30.5803 49.6306 30.3165C49.8944 30.0528 50.252 29.9047 50.625 29.9047C50.998 29.9047 51.3556 30.0528 51.6194 30.3165C51.8831 30.5803 52.0312 30.938 52.0312 31.3109V34.7703C52.0312 35.3609 52.4109 35.8897 52.9734 36.0865L64.7072 40.2519C67.1712 41.1259 69.3038 42.7422 70.8113 44.8783C72.3188 47.0143 73.1271 49.5652 73.125 52.1797V52.9672C73.1243 53.3396 72.9758 53.6966 72.7121 53.9597C72.4485 54.2228 72.0912 54.3706 71.7188 54.3706ZM18.2812 54.3706C17.9083 54.3706 17.5506 54.2224 17.2869 53.9587C17.0232 53.695 16.875 53.3373 16.875 52.9644V52.205C16.875 51.3275 16.9678 50.4472 17.1506 49.5781C17.6089 47.458 18.599 45.4893 20.0278 43.8572C21.4566 42.2252 23.2772 40.9836 25.3181 40.249L37.0237 36.1428C37.2985 36.0479 37.5369 35.87 37.7062 35.6337C37.8755 35.3974 37.9672 35.1144 37.9688 34.8237V31.3081C37.9688 30.9351 38.1169 30.5775 38.3806 30.3137C38.6444 30.05 39.002 29.9019 39.375 29.9019C39.748 29.9019 40.1056 30.05 40.3694 30.3137C40.6331 30.5775 40.7812 30.9351 40.7812 31.3081V34.8237C40.7795 35.6973 40.5067 36.5487 40.0004 37.2606C39.4941 37.9724 38.7793 38.5095 37.9547 38.7978L26.2575 42.9012C24.669 43.4723 23.2521 44.4383 22.1401 45.7083C21.0281 46.9782 20.2576 48.5103 19.9013 50.1603C19.7578 50.8353 19.6875 51.5244 19.6875 52.205V52.9644C19.6875 53.3373 19.5393 53.695 19.2756 53.9587C19.0119 54.2224 18.6542 54.3706 18.2812 54.3706Z" fill="#FF0000"/>
<path d="M45.0005 34.6831C44.6275 34.6831 44.2698 34.5349 44.0061 34.2712C43.7424 34.0075 43.5942 33.6498 43.5942 33.2769C43.5942 32.9039 43.7424 32.5462 44.0061 32.2825C44.2698 32.0188 44.6275 31.8706 45.0005 31.8706C47.9198 31.8706 53.438 29.2269 53.438 19.2144V14.9956C53.438 10.3437 49.6523 6.55811 45.0005 6.55811C40.3486 6.55811 36.563 10.3437 36.563 14.9956V19.2144C36.563 24.0631 37.8595 27.7728 40.3092 29.9412C40.4534 30.0618 40.5719 30.21 40.6579 30.3771C40.7438 30.5442 40.7953 30.7269 40.8095 30.9143C40.8236 31.1017 40.8001 31.29 40.7402 31.4681C40.6803 31.6463 40.5854 31.8106 40.4609 31.9514C40.3365 32.0922 40.185 32.2066 40.0156 32.2879C39.8462 32.3692 39.6622 32.4158 39.4745 32.4247C39.2868 32.4337 39.0992 32.405 38.9227 32.3403C38.7463 32.2755 38.5847 32.1761 38.4473 32.0478C36.3042 30.1522 33.7505 26.389 33.7505 19.2144V14.9956C33.7505 8.79123 38.7961 3.74561 45.0005 3.74561C51.2048 3.74561 56.2505 8.79123 56.2505 14.9956V19.2144C56.2505 31.4515 48.893 34.6831 45.0005 34.6831ZM66.4261 79.6831C66.1091 79.6825 65.8017 79.5747 65.5536 79.3774C65.3055 79.1801 65.1314 78.9048 65.0594 78.5961C64.9875 78.2874 65.0219 77.9635 65.1572 77.6768C65.2924 77.3902 65.5205 77.1576 65.8045 77.0169L72.7598 73.5715C72.9536 73.4758 73.1667 73.426 73.3828 73.426C73.5989 73.426 73.812 73.4758 74.0058 73.5715L78.5508 75.8244L77.8111 70.8069C77.78 70.5925 77.7989 70.3738 77.8662 70.168C77.9335 69.9621 78.0475 69.7746 78.1992 69.62L81.7514 65.989L76.7451 65.1369C76.5319 65.0999 76.33 65.0145 76.155 64.8872C75.9799 64.76 75.8364 64.5942 75.7355 64.4028L73.3842 59.9084L71.0301 64.4028C70.9292 64.5942 70.7857 64.76 70.6106 64.8872C70.4356 65.0145 70.2337 65.0999 70.0205 65.1369L65.017 65.989L68.5664 69.62C68.8214 69.8878 68.9606 70.2452 68.954 70.6149C68.9474 70.9846 68.7954 71.3368 68.531 71.5952C68.2666 71.8537 67.9111 71.9977 67.5413 71.9959C67.1716 71.9942 66.8174 71.8469 66.5555 71.5859L61.1301 66.0369C60.9501 65.8537 60.8238 65.6246 60.765 65.3745C60.7062 65.1245 60.7171 64.8631 60.7966 64.6189C60.876 64.3746 61.021 64.1568 61.2157 63.9893C61.4104 63.8218 61.6474 63.7109 61.9008 63.6687L68.8645 62.4819L72.1411 56.2269C72.2615 56.001 72.441 55.8121 72.6605 55.6804C72.8799 55.5487 73.1311 55.4791 73.387 55.4791C73.643 55.4791 73.8941 55.5487 74.1136 55.6804C74.333 55.8121 74.5126 56.001 74.633 56.2269L77.9067 62.4819L84.8733 63.6687C85.1261 63.7118 85.3623 63.8232 85.5564 63.9908C85.7505 64.1585 85.895 64.376 85.9744 64.6199C86.0537 64.8637 86.0649 65.1247 86.0067 65.3744C85.9484 65.6242 85.823 65.8533 85.6439 66.0369L80.7023 71.0853L81.7317 78.0715C81.7679 78.3254 81.7344 78.5843 81.6349 78.8206C81.5353 79.0569 81.3734 79.2617 81.1664 79.4131C80.9591 79.565 80.7139 79.6566 80.4578 79.678C80.2017 79.6993 79.9447 79.6495 79.7151 79.534L73.387 76.3981L67.0561 79.534C66.8609 79.633 66.6449 79.6842 66.4261 79.6831ZM36.7767 87.3359C36.5746 87.3361 36.3748 87.2926 36.191 87.2086C36.0072 87.1246 35.8437 87.0019 35.7115 86.849C35.5794 86.696 35.4818 86.5164 35.4254 86.3223C35.369 86.1283 35.355 85.9243 35.3845 85.7244L36.6164 77.3347L30.6876 71.2709C30.5076 71.0877 30.3813 70.8586 30.3225 70.6086C30.2636 70.3586 30.2746 70.0972 30.3541 69.8529C30.4335 69.6087 30.5785 69.3909 30.7732 69.2234C30.9679 69.0558 31.2049 68.945 31.4583 68.9028L39.8226 67.4797L43.7545 59.9675C44.2439 59.0394 45.7598 59.0394 46.2492 59.9675L50.1811 67.4797L58.5455 68.9028C58.7983 68.9459 59.0345 69.0572 59.2286 69.2249C59.4227 69.3925 59.5672 69.6101 59.6466 69.8539C59.7259 70.0978 59.7371 70.3587 59.6788 70.6085C59.6206 70.8582 59.4951 71.0873 59.3161 71.2709L53.3845 77.3347L54.6192 85.7244C54.6554 85.9782 54.6219 86.2371 54.5224 86.4734C54.4228 86.7097 54.2609 86.9145 54.0539 87.0659C53.8466 87.2178 53.6014 87.3094 53.3453 87.3308C53.0892 87.3521 52.8322 87.3023 52.6026 87.1869L45.0005 83.4209L37.4011 87.1869C37.2073 87.2843 36.9936 87.3353 36.7767 87.3359ZM34.5745 71.2231L39.1139 75.8665C39.4205 76.1815 39.5639 76.6203 39.502 77.0534L38.557 83.4744L44.3761 80.5915C44.5694 80.4946 44.7827 80.4441 44.9991 80.4441C45.2154 80.4441 45.4287 80.4946 45.622 80.5915L51.4383 83.4744L50.4933 77.0534C50.4622 76.8391 50.481 76.6204 50.5484 76.4145C50.6157 76.2087 50.7297 76.0211 50.8814 75.8665L55.4236 71.2231L49.0195 70.1319C48.8063 70.0949 48.6044 70.0095 48.4293 69.8822C48.2543 69.755 48.1108 69.5892 48.0098 69.3978L45.0005 63.6462L41.9911 69.3978C41.8901 69.5892 41.7466 69.755 41.5716 69.8822C41.3965 70.0095 41.1946 70.0949 40.9814 70.1319L34.5745 71.2231ZM23.8026 79.6831C23.5861 79.6826 23.3725 79.6326 23.1783 79.5369L16.8501 76.4009L10.5192 79.5397C10.2891 79.6539 10.0321 79.703 9.77614 79.6815C9.52015 79.66 9.27493 79.5688 9.06711 79.4178C8.85929 79.2668 8.6968 79.0617 8.59729 78.8249C8.49778 78.5881 8.46505 78.3285 8.50265 78.0744L9.53202 71.0881L4.59046 66.0397C4.41042 65.8565 4.2841 65.6274 4.22528 65.3773C4.16646 65.1273 4.17739 64.8659 4.25687 64.6217C4.33636 64.3774 4.48135 64.1597 4.67605 63.9921C4.87076 63.8246 5.10771 63.7137 5.36108 63.6715L12.3276 62.4847L15.6042 56.2297C15.7246 56.0038 15.9041 55.8149 16.1236 55.6832C16.3431 55.5515 16.5942 55.4819 16.8501 55.4819C17.1061 55.4819 17.3572 55.5515 17.5767 55.6832C17.7962 55.8149 17.9757 56.0038 18.0961 56.2297L21.3698 62.4847L28.3336 63.6715C28.5864 63.7146 28.8226 63.826 29.0167 63.9936C29.2108 64.1613 29.3553 64.3788 29.4347 64.6227C29.5141 64.8665 29.5252 65.1275 29.467 65.3772C29.4087 65.627 29.2833 65.8561 29.1042 66.0397L23.6789 71.5859C23.417 71.8469 23.0628 71.9942 22.693 71.9959C22.3233 71.9977 21.9677 71.8537 21.7033 71.5952C21.4389 71.3368 21.287 70.9846 21.2804 70.6149C21.2737 70.2452 21.413 69.8878 21.668 69.62L25.2173 65.989L20.2139 65.1369C20.0005 65.1003 19.7984 65.015 19.6233 64.8877C19.4482 64.7604 19.3048 64.5945 19.2042 64.4028L16.853 59.9084L14.4989 64.4028C14.398 64.5942 14.2544 64.76 14.0794 64.8872C13.9044 65.0145 13.7024 65.0999 13.4892 65.1369L8.48296 65.989L12.0351 69.62C12.3417 69.935 12.4851 70.3737 12.4233 70.8069L11.6836 75.8244L16.2314 73.5715C16.4251 73.4758 16.6383 73.426 16.8544 73.426C17.0704 73.426 17.2836 73.4758 17.4773 73.5715L24.4298 77.0169C24.7143 77.1578 24.9426 77.3909 25.0778 77.6781C25.213 77.9653 25.247 78.2899 25.1743 78.5989C25.1016 78.9079 24.9265 79.1832 24.6774 79.3801C24.4284 79.5769 24.1201 79.6837 23.8026 79.6831Z" fill="#FF0000"/>
</svg>
