<svg width="24" height="24" viewBox="0 0 24 24" fill="none" xmlns="http://www.w3.org/2000/svg">
<path fill-rule="evenodd" clip-rule="evenodd" d="M21.8184 6.13927C21.1358 6.44172 20.4034 6.64684 19.6339 6.73842C20.4196 6.2679 21.0211 5.5216 21.3061 4.63505C20.5691 5.07078 19.7556 5.38718 18.8887 5.55869C18.1946 4.81818 17.2072 4.35693 16.112 4.35693C14.011 4.35693 12.3075 6.06048 12.3075 8.16036C12.3075 8.45818 12.3411 8.74905 12.406 9.02721C9.24459 8.86842 6.44128 7.35378 4.56507 5.05224C4.2371 5.61315 4.05053 6.26672 4.05053 6.96439C4.05053 8.28436 4.72268 9.44902 5.74249 10.1304C5.11901 10.1096 4.53262 9.93806 4.01925 9.65296V9.70048C4.01925 11.5431 5.3311 13.0809 7.07056 13.4309C6.75186 13.5167 6.4158 13.5642 6.06813 13.5642C5.82246 13.5642 5.58489 13.5398 5.35195 13.4935C5.83634 15.0058 7.24092 16.1056 8.90507 16.1357C7.60365 17.1555 5.96268 17.7616 4.18034 17.7616C3.87325 17.7616 3.57077 17.7431 3.27295 17.7095C4.9568 18.7907 6.95586 19.4211 9.1044 19.4211C16.1028 19.4211 19.9283 13.6244 19.9283 8.59727L19.9155 8.10475C20.663 7.57163 21.3096 6.90181 21.8184 6.13927Z" fill="#FF0000"/>
<mask id="mask0_4029_1712" style="mask-type:luminance" maskUnits="userSpaceOnUse" x="3" y="4" width="19" height="16">
<path fill-rule="evenodd" clip-rule="evenodd" d="M21.8184 6.13927C21.1358 6.44172 20.4034 6.64684 19.6339 6.73842C20.4196 6.2679 21.0211 5.5216 21.3061 4.63505C20.5691 5.07078 19.7556 5.38718 18.8887 5.55869C18.1946 4.81818 17.2072 4.35693 16.112 4.35693C14.011 4.35693 12.3075 6.06048 12.3075 8.16036C12.3075 8.45818 12.3411 8.74905 12.406 9.02721C9.24459 8.86842 6.44128 7.35378 4.56507 5.05224C4.2371 5.61315 4.05053 6.26672 4.05053 6.96439C4.05053 8.28436 4.72268 9.44902 5.74249 10.1304C5.11901 10.1096 4.53262 9.93806 4.01925 9.65296V9.70048C4.01925 11.5431 5.3311 13.0809 7.07056 13.4309C6.75186 13.5167 6.4158 13.5642 6.06813 13.5642C5.82246 13.5642 5.58489 13.5398 5.35195 13.4935C5.83634 15.0058 7.24092 16.1056 8.90507 16.1357C7.60365 17.1555 5.96268 17.7616 4.18034 17.7616C3.87325 17.7616 3.57077 17.7431 3.27295 17.7095C4.9568 18.7907 6.95586 19.4211 9.1044 19.4211C16.1028 19.4211 19.9283 13.6244 19.9283 8.59727L19.9155 8.10475C20.663 7.57163 21.3096 6.90181 21.8184 6.13927Z" fill="white"/>
</mask>
<g mask="url(#mask0_4029_1712)">
</g>
</svg>
