<svg width="24" height="24" viewBox="0 0 24 24" fill="none" xmlns="http://www.w3.org/2000/svg">
<path d="M16.3994 2.1748C19.3874 2.17505 21.8185 4.60597 21.8184 7.59375V16.3926C21.8182 19.3802 19.3873 21.8113 16.3994 21.8115H7.60059C4.61277 21.8115 2.18182 19.3805 2.18164 16.3926V7.59375C2.18164 4.60582 4.61266 2.1748 7.60059 2.1748H16.3994ZM7.60059 3.91699C5.57332 3.91699 3.92383 5.56649 3.92383 7.59375V16.3926C3.92401 18.4198 5.57344 20.0695 7.60059 20.0693H16.3994C18.3633 20.0692 19.9727 18.5209 20.0713 16.5811L20.0762 16.3926V7.59375C20.0762 5.56664 18.4266 3.91724 16.3994 3.91699H7.60059ZM12 6.85059C14.8357 6.85068 17.1426 9.15734 17.1426 11.9932C17.1425 14.8288 14.8357 17.1356 12 17.1357C9.16421 17.1357 6.85745 14.8289 6.85742 11.9932C6.85742 9.15729 9.16419 6.85059 12 6.85059ZM12 8.62109C10.1406 8.62109 8.62793 10.1337 8.62793 11.9932C8.62803 13.8524 10.1408 15.3652 12 15.3652C13.8591 15.3651 15.372 13.8523 15.3721 11.9932C15.3721 10.1338 13.8593 8.62119 12 8.62109Z" fill="#FF0000"/>
<mask id="mask0_4029_1713" style="mask-type:luminance" maskUnits="userSpaceOnUse" x="2" y="2" width="20" height="20">
<path d="M16.3994 2.1748C19.3874 2.17505 21.8185 4.60597 21.8184 7.59375V16.3926C21.8182 19.3802 19.3873 21.8113 16.3994 21.8115H7.60059C4.61277 21.8115 2.18182 19.3805 2.18164 16.3926V7.59375C2.18164 4.60582 4.61266 2.1748 7.60059 2.1748H16.3994ZM7.60059 3.91699C5.57332 3.91699 3.92383 5.56649 3.92383 7.59375V16.3926C3.92401 18.4198 5.57344 20.0695 7.60059 20.0693H16.3994C18.3633 20.0692 19.9727 18.5209 20.0713 16.5811L20.0762 16.3926V7.59375C20.0762 5.56664 18.4266 3.91724 16.3994 3.91699H7.60059ZM12 6.85059C14.8357 6.85068 17.1426 9.15734 17.1426 11.9932C17.1425 14.8288 14.8357 17.1356 12 17.1357C9.16421 17.1357 6.85745 14.8289 6.85742 11.9932C6.85742 9.15729 9.16419 6.85059 12 6.85059ZM12 8.62109C10.1406 8.62109 8.62793 10.1337 8.62793 11.9932C8.62803 13.8524 10.1408 15.3652 12 15.3652C13.8591 15.3651 15.372 13.8523 15.3721 11.9932C15.3721 10.1338 13.8593 8.62119 12 8.62109Z" fill="white"/>
</mask>
<g mask="url(#mask0_4029_1713)">
</g>
</svg>
