<svg width="24" height="24" viewBox="0 0 24 24" fill="none" xmlns="http://www.w3.org/2000/svg">
<path fill-rule="evenodd" clip-rule="evenodd" d="M13.6347 20.7207V12.7594H16.3581L16.7666 9.65584H13.6347V7.67467C13.6347 6.7764 13.888 6.16423 15.2027 6.16423L16.8769 6.16356V3.38762C16.5874 3.35072 15.5935 3.26611 14.4368 3.26611C12.0215 3.26611 10.3679 4.71219 10.3679 7.36729V9.65584H7.63623V12.7594H10.3679V20.7207H13.6347Z" fill="#FF0000"/>
<mask id="mask0_4029_1711" style="mask-type:luminance" maskUnits="userSpaceOnUse" x="7" y="3" width="10" height="18">
<path fill-rule="evenodd" clip-rule="evenodd" d="M13.6347 20.7207V12.7594H16.3581L16.7666 9.65584H13.6347V7.67467C13.6347 6.7764 13.888 6.16423 15.2027 6.16423L16.8769 6.16356V3.38762C16.5874 3.35072 15.5935 3.26611 14.4368 3.26611C12.0215 3.26611 10.3679 4.71219 10.3679 7.36729V9.65584H7.63623V12.7594H10.3679V20.7207H13.6347Z" fill="white"/>
</mask>
<g mask="url(#mask0_4029_1711)">
</g>
</svg>
