<svg width="24" height="24" viewBox="0 0 24 24" fill="none" xmlns="http://www.w3.org/2000/svg">
<path d="M19.2 2.99316H4.8C3.81 2.99316 3 3.80316 3 4.79316V19.1932C3 20.1832 3.81 20.9932 4.8 20.9932H19.2C20.19 20.9932 21 20.1832 21 19.1932V4.79316C21 3.80316 20.19 2.99316 19.2 2.99316ZM8.4 18.2932H5.7V10.1932H8.4V18.2932ZM7.05 8.66316C6.15 8.66316 5.43 7.94316 5.43 7.04316C5.43 6.14316 6.15 5.42316 7.05 5.42316C7.95 5.42316 8.67 6.14316 8.67 7.04316C8.67 7.94316 7.95 8.66316 7.05 8.66316ZM18.3 18.2932H15.6V13.5232C15.6 12.8032 14.97 12.1732 14.25 12.1732C13.53 12.1732 12.9 12.8032 12.9 13.5232V18.2932H10.2V10.1932H12.9V11.2732C13.35 10.5532 14.34 10.0132 15.15 10.0132C16.86 10.0132 18.3 11.4532 18.3 13.1632V18.2932Z" fill="#FF0000"/>
</svg>
